<svg id="visual" viewBox="0 0 480 640" width="480" height="640" xmlns="http://www.w3.org/2000/svg" xmlns:xlink="http://www.w3.org/1999/xlink" version="1.1"><path d="M0 71L13.3 76.3C26.7 81.7 53.3 92.3 80 88.2C106.7 84 133.3 65 160 72.5C186.7 80 213.3 114 240 123.5C266.7 133 293.3 118 320 115.8C346.7 113.7 373.3 124.3 400 123.3C426.7 122.3 453.3 109.7 466.7 103.3L480 97L480 0L466.7 0C453.3 0 426.7 0 400 0C373.3 0 346.7 0 320 0C293.3 0 266.7 0 240 0C213.3 0 186.7 0 160 0C133.3 0 106.7 0 80 0C53.3 0 26.7 0 13.3 0L0 0Z" fill="#ff8f67"></path><path d="M0 97L13.3 101.3C26.7 105.7 53.3 114.3 80 112.2C106.7 110 133.3 97 160 107.7C186.7 118.3 213.3 152.7 240 175.2C266.7 197.7 293.3 208.3 320 207.2C346.7 206 373.3 193 400 193C426.7 193 453.3 206 466.7 212.5L480 219L480 95L466.7 101.3C453.3 107.7 426.7 120.3 400 121.3C373.3 122.3 346.7 111.7 320 113.8C293.3 116 266.7 131 240 121.5C213.3 112 186.7 78 160 70.5C133.3 63 106.7 82 80 86.2C53.3 90.3 26.7 79.7 13.3 74.3L0 69Z" fill="#ff7546"></path><path d="M0 315L13.3 295.7C26.7 276.3 53.3 237.7 80 253.7C106.7 269.7 133.3 340.3 160 377.7C186.7 415 213.3 419 240 435C266.7 451 293.3 479 320 453.5C346.7 428 373.3 349 400 320.2C426.7 291.3 453.3 312.7 466.7 323.3L480 334L480 217L466.7 210.5C453.3 204 426.7 191 400 191C373.3 191 346.7 204 320 205.2C293.3 206.3 266.7 195.7 240 173.2C213.3 150.7 186.7 116.3 160 105.7C133.3 95 106.7 108 80 110.2C53.3 112.3 26.7 103.7 13.3 99.3L0 95Z" fill="#ff5722"></path><path d="M0 603L13.3 584.8C26.7 566.7 53.3 530.3 80 518.5C106.7 506.7 133.3 519.3 160 530C186.7 540.7 213.3 549.3 240 556.8C266.7 564.3 293.3 570.7 320 553.5C346.7 536.3 373.3 495.7 400 494.7C426.7 493.7 453.3 532.3 466.7 551.7L480 571L480 332L466.7 321.3C453.3 310.7 426.7 289.3 400 318.2C373.3 347 346.7 426 320 451.5C293.3 477 266.7 449 240 433C213.3 417 186.7 413 160 375.7C133.3 338.3 106.7 267.7 80 251.7C53.3 235.7 26.7 274.3 13.3 293.7L0 313Z" fill="#de4a1e"></path><path d="M0 641L13.3 641C26.7 641 53.3 641 80 641C106.7 641 133.3 641 160 641C186.7 641 213.3 641 240 641C266.7 641 293.3 641 320 641C346.7 641 373.3 641 400 641C426.7 641 453.3 641 466.7 641L480 641L480 569L466.7 549.7C453.3 530.3 426.7 491.7 400 492.7C373.3 493.7 346.7 534.3 320 551.5C293.3 568.7 266.7 562.3 240 554.8C213.3 547.3 186.7 538.7 160 528C133.3 517.3 106.7 504.7 80 516.5C53.3 528.3 26.7 564.7 13.3 582.8L0 601Z" fill="#be3d1a"></path></svg>