<svg id="visual" viewBox="0 0 480 640" width="480" height="640" xmlns="http://www.w3.org/2000/svg" xmlns:xlink="http://www.w3.org/1999/xlink" version="1.1"><path d="M0 225L10 218.7C20 212.3 40 199.7 60 185.8C80 172 100 157 120 147.3C140 137.7 160 133.3 180 145C200 156.7 220 184.3 240 179C260 173.7 280 135.3 300 120.5C320 105.7 340 114.3 360 131.3C380 148.3 400 173.7 420 172.5C440 171.3 460 143.7 470 129.8L480 116L480 0L470 0C460 0 440 0 420 0C400 0 380 0 360 0C340 0 320 0 300 0C280 0 260 0 240 0C220 0 200 0 180 0C160 0 140 0 120 0C100 0 80 0 60 0C40 0 20 0 10 0L0 0Z" fill="#ffd971"></path><path d="M0 359L10 347.3C20 335.7 40 312.3 60 289C80 265.7 100 242.3 120 242.3C140 242.3 160 265.7 180 289C200 312.3 220 335.7 240 327.2C260 318.7 280 278.3 300 266.7C320 255 340 272 360 289C380 306 400 323 420 319.8C440 316.7 460 293.3 470 281.7L480 270L480 114L470 127.8C460 141.7 440 169.3 420 170.5C400 171.7 380 146.3 360 129.3C340 112.3 320 103.7 300 118.5C280 133.3 260 171.7 240 177C220 182.3 200 154.7 180 143C160 131.3 140 135.7 120 145.3C100 155 80 170 60 183.8C40 197.7 20 210.3 10 216.7L0 223Z" fill="#ffd04f"></path><path d="M0 430L10 422.5C20 415 40 400 60 379.7C80 359.3 100 333.7 120 329.3C140 325 160 342 180 358C200 374 220 389 240 387C260 385 280 366 300 354.3C320 342.7 340 338.3 360 345.7C380 353 400 372 420 374.2C440 376.3 460 361.7 470 354.3L480 347L480 268L470 279.7C460 291.3 440 314.7 420 317.8C400 321 380 304 360 287C340 270 320 253 300 264.7C280 276.3 260 316.7 240 325.2C220 333.7 200 310.3 180 287C160 263.7 140 240.3 120 240.3C100 240.3 80 263.7 60 287C40 310.3 20 333.7 10 345.3L0 357Z" fill="#ffc622"></path><path d="M0 539L10 520.8C20 502.7 40 466.3 60 437.5C80 408.7 100 387.3 120 390.5C140 393.7 160 421.3 180 449C200 476.7 220 504.3 240 501.2C260 498 280 464 300 449.2C320 434.3 340 438.7 360 453.5C380 468.3 400 493.7 420 488.3C440 483 460 447 470 429L480 411L480 345L470 352.3C460 359.7 440 374.3 420 372.2C400 370 380 351 360 343.7C340 336.3 320 340.7 300 352.3C280 364 260 383 240 385C220 387 200 372 180 356C160 340 140 323 120 327.3C100 331.7 80 357.3 60 377.7C40 398 20 413 10 420.5L0 428Z" fill="#ddac1b"></path><path d="M0 641L10 641C20 641 40 641 60 641C80 641 100 641 120 641C140 641 160 641 180 641C200 641 220 641 240 641C260 641 280 641 300 641C320 641 340 641 360 641C380 641 400 641 420 641C440 641 460 641 470 641L480 641L480 409L470 427C460 445 440 481 420 486.3C400 491.7 380 466.3 360 451.5C340 436.7 320 432.3 300 447.2C280 462 260 496 240 499.2C220 502.3 200 474.7 180 447C160 419.3 140 391.7 120 388.5C100 385.3 80 406.7 60 435.5C40 464.3 20 500.7 10 518.8L0 537Z" fill="#bd9315"></path></svg>