<svg id="visual" viewBox="0 0 480 640" width="480" height="640" xmlns="http://www.w3.org/2000/svg" xmlns:xlink="http://www.w3.org/1999/xlink" version="1.1"><path d="M0 39L10 41.2C20 43.3 40 47.7 60 52C80 56.3 100 60.7 120 63.8C140 67 160 69 180 68C200 67 220 63 240 57.7C260 52.3 280 45.7 300 49.8C320 54 340 69 360 76.5C380 84 400 84 420 79.8C440 75.7 460 67.3 470 63.2L480 59L480 0L470 0C460 0 440 0 420 0C400 0 380 0 360 0C340 0 320 0 300 0C280 0 260 0 240 0C220 0 200 0 180 0C160 0 140 0 120 0C100 0 80 0 60 0C40 0 20 0 10 0L0 0Z" fill="#38b8aa"></path><path d="M0 199L10 218.3C20 237.7 40 276.3 60 294.5C80 312.7 100 310.3 120 319.8C140 329.3 160 350.7 180 331.5C200 312.3 220 252.7 240 241C260 229.3 280 265.7 300 277.3C320 289 340 276 360 257.8C380 239.7 400 216.3 420 220.7C440 225 460 257 470 273L480 289L480 57L470 61.2C460 65.3 440 73.7 420 77.8C400 82 380 82 360 74.5C340 67 320 52 300 47.8C280 43.7 260 50.3 240 55.7C220 61 200 65 180 66C160 67 140 65 120 61.8C100 58.7 80 54.3 60 50C40 45.7 20 41.3 10 39.2L0 37Z" fill="#23a799"></path><path d="M0 321L10 336C20 351 40 381 60 407.7C80 434.3 100 457.7 120 469.3C140 481 160 481 180 454.3C200 427.7 220 374.3 240 368C260 361.7 280 402.3 300 408.7C320 415 340 387 360 365.7C380 344.3 400 329.7 420 334C440 338.3 460 361.7 470 373.3L480 385L480 287L470 271C460 255 440 223 420 218.7C400 214.3 380 237.7 360 255.8C340 274 320 287 300 275.3C280 263.7 260 227.3 240 239C220 250.7 200 310.3 180 329.5C160 348.7 140 327.3 120 317.8C100 308.3 80 310.7 60 292.5C40 274.3 20 235.7 10 216.3L0 197Z" fill="#009688"></path><path d="M0 404L10 419C20 434 40 464 60 487.5C80 511 100 528 120 533.3C140 538.7 160 532.3 180 510C200 487.7 220 449.3 240 452.5C260 455.7 280 500.3 300 506.7C320 513 340 481 360 460.7C380 440.3 400 431.7 420 443.3C440 455 460 487 470 503L480 519L480 383L470 371.3C460 359.7 440 336.3 420 332C400 327.7 380 342.3 360 363.7C340 385 320 413 300 406.7C280 400.3 260 359.7 240 366C220 372.3 200 425.7 180 452.3C160 479 140 479 120 467.3C100 455.7 80 432.3 60 405.7C40 379 20 349 10 334L0 319Z" fill="#008276"></path><path d="M0 641L10 641C20 641 40 641 60 641C80 641 100 641 120 641C140 641 160 641 180 641C200 641 220 641 240 641C260 641 280 641 300 641C320 641 340 641 360 641C380 641 400 641 420 641C440 641 460 641 470 641L480 641L480 517L470 501C460 485 440 453 420 441.3C400 429.7 380 438.3 360 458.7C340 479 320 511 300 504.7C280 498.3 260 453.7 240 450.5C220 447.3 200 485.7 180 508C160 530.3 140 536.7 120 531.3C100 526 80 509 60 485.5C40 462 20 432 10 417L0 402Z" fill="#006e64"></path></svg>