<svg id="visual" viewBox="0 0 480 640" width="480" height="640" xmlns="http://www.w3.org/2000/svg" xmlns:xlink="http://www.w3.org/1999/xlink" version="1.1"><path d="M0 91L10 96.3C20 101.7 40 112.3 60 117.7C80 123 100 123 120 125C140 127 160 131 180 119.2C200 107.3 220 79.7 240 67C260 54.3 280 56.7 300 58.8C320 61 340 63 360 65C380 67 400 69 420 78.7C440 88.3 460 105.7 470 114.3L480 123L480 0L470 0C460 0 440 0 420 0C400 0 380 0 360 0C340 0 320 0 300 0C280 0 260 0 240 0C220 0 200 0 180 0C160 0 140 0 120 0C100 0 80 0 60 0C40 0 20 0 10 0L0 0Z" fill="#82dbfd"></path><path d="M0 167L10 176.7C20 186.3 40 205.7 60 214.3C80 223 100 221 120 216.7C140 212.3 160 205.7 180 195C200 184.3 220 169.7 240 164.3C260 159 280 163 300 165C320 167 340 167 360 161.7C380 156.3 400 145.7 420 147.8C440 150 460 165 470 172.5L480 180L480 121L470 112.3C460 103.7 440 86.3 420 76.7C400 67 380 65 360 63C340 61 320 59 300 56.8C280 54.7 260 52.3 240 65C220 77.7 200 105.3 180 117.2C160 129 140 125 120 123C100 121 80 121 60 115.7C40 110.3 20 99.7 10 94.3L0 89Z" fill="#5ed3fe"></path><path d="M0 308L10 314.5C20 321 40 334 60 341.5C80 349 100 351 120 340.3C140 329.7 160 306.3 180 300C200 293.7 220 304.3 240 308.5C260 312.7 280 310.3 300 308.2C320 306 340 304 360 305.2C380 306.3 400 310.7 420 303.2C440 295.7 460 276.3 470 266.7L480 257L480 178L470 170.5C460 163 440 148 420 145.8C400 143.7 380 154.3 360 159.7C340 165 320 165 300 163C280 161 260 157 240 162.3C220 167.7 200 182.3 180 193C160 203.7 140 210.3 120 214.7C100 219 80 221 60 212.3C40 203.7 20 184.3 10 174.7L0 165Z" fill="#22caff"></path><path d="M0 507L10 508C20 509 40 511 60 511C80 511 100 509 120 492C140 475 160 443 180 449.3C200 455.7 220 500.3 240 518.3C260 536.3 280 527.7 300 502C320 476.3 340 433.7 360 433.7C380 433.7 400 476.3 420 485C440 493.7 460 468.3 470 455.7L480 443L480 255L470 264.7C460 274.3 440 293.7 420 301.2C400 308.7 380 304.3 360 303.2C340 302 320 304 300 306.2C280 308.3 260 310.7 240 306.5C220 302.3 200 291.7 180 298C160 304.3 140 327.7 120 338.3C100 349 80 347 60 339.5C40 332 20 319 10 312.5L0 306Z" fill="#1ab0de"></path><path d="M0 641L10 641C20 641 40 641 60 641C80 641 100 641 120 641C140 641 160 641 180 641C200 641 220 641 240 641C260 641 280 641 300 641C320 641 340 641 360 641C380 641 400 641 420 641C440 641 460 641 470 641L480 641L480 441L470 453.7C460 466.3 440 491.7 420 483C400 474.3 380 431.7 360 431.7C340 431.7 320 474.3 300 500C280 525.7 260 534.3 240 516.3C220 498.3 200 453.7 180 447.3C160 441 140 473 120 490C100 507 80 509 60 509C40 509 20 507 10 506L0 505Z" fill="#1396be"></path></svg>