<svg id="visual" viewBox="0 0 1920 480" width="1920" height="480" xmlns="http://www.w3.org/2000/svg" xmlns:xlink="http://www.w3.org/1999/xlink" version="1.1"><path d="M0 30L40 31.5C80 33 160 36 240 39.2C320 42.3 400 45.7 480 48.2C560 50.7 640 52.3 720 51.5C800 50.7 880 47.3 960 43.3C1040 39.3 1120 34.7 1200 37.8C1280 41 1360 52 1440 57.5C1520 63 1600 63 1680 59.8C1760 56.7 1840 50.3 1880 47.2L1920 44L1920 0L1880 0C1840 0 1760 0 1680 0C1600 0 1520 0 1440 0C1360 0 1280 0 1200 0C1120 0 1040 0 960 0C880 0 800 0 720 0C640 0 560 0 480 0C400 0 320 0 240 0C160 0 80 0 40 0L0 0Z" fill="#ffc622"></path><path d="M0 150L40 164.3C80 178.7 160 207.3 240 220.8C320 234.3 400 232.7 480 239.8C560 247 640 263 720 248.7C800 234.3 880 189.7 960 181C1040 172.3 1120 199.7 1200 208.5C1280 217.3 1360 207.7 1440 194C1520 180.3 1600 162.7 1680 165.8C1760 169 1840 193 1880 205L1920 217L1920 42L1880 45.2C1840 48.3 1760 54.7 1680 57.8C1600 61 1520 61 1440 55.5C1360 50 1280 39 1200 35.8C1120 32.7 1040 37.3 960 41.3C880 45.3 800 48.7 720 49.5C640 50.3 560 48.7 480 46.2C400 43.7 320 40.3 240 37.2C160 34 80 31 40 29.5L0 28Z" fill="#ffac10"></path><path d="M0 241L40 252.2C80 263.3 160 285.7 240 305.7C320 325.7 400 343.3 480 352.2C560 361 640 361 720 341C800 321 880 281 960 276.2C1040 271.3 1120 301.7 1200 306.5C1280 311.3 1360 290.7 1440 274.7C1520 258.7 1600 247.3 1680 250.5C1760 253.7 1840 271.3 1880 280.2L1920 289L1920 215L1880 203C1840 191 1760 167 1680 163.8C1600 160.7 1520 178.3 1440 192C1360 205.7 1280 215.3 1200 206.5C1120 197.7 1040 170.3 960 179C880 187.7 800 232.3 720 246.7C640 261 560 245 480 237.8C400 230.7 320 232.3 240 218.8C160 205.3 80 176.7 40 162.3L0 148Z" fill="#ff920b"></path><path d="M0 303L40 314.3C80 325.7 160 348.3 240 366C320 383.7 400 396.3 480 400.3C560 404.3 640 399.7 720 382.8C800 366 880 337 960 339.3C1040 341.7 1120 375.3 1200 380.2C1280 385 1360 361 1440 345.8C1520 330.7 1600 324.3 1680 333.2C1760 342 1840 366 1880 378L1920 390L1920 287L1880 278.2C1840 269.3 1760 251.7 1680 248.5C1600 245.3 1520 256.7 1440 272.7C1360 288.7 1280 309.3 1200 304.5C1120 299.7 1040 269.3 960 274.2C880 279 800 319 720 339C640 359 560 359 480 350.2C400 341.3 320 323.7 240 303.7C160 283.7 80 261.3 40 250.2L0 239Z" fill="#ff7615"></path><path d="M0 481L40 481C80 481 160 481 240 481C320 481 400 481 480 481C560 481 640 481 720 481C800 481 880 481 960 481C1040 481 1120 481 1200 481C1280 481 1360 481 1440 481C1520 481 1600 481 1680 481C1760 481 1840 481 1880 481L1920 481L1920 388L1880 376C1840 364 1760 340 1680 331.2C1600 322.3 1520 328.7 1440 343.8C1360 359 1280 383 1200 378.2C1120 373.3 1040 339.7 960 337.3C880 335 800 364 720 380.8C640 397.7 560 402.3 480 398.3C400 394.3 320 381.7 240 364C160 346.3 80 323.7 40 312.3L0 301Z" fill="#ff5722"></path></svg>