<svg id="Layer_1" data-name="Layer 1" xmlns="http://www.w3.org/2000/svg" xmlns:xlink="http://www.w3.org/1999/xlink" viewBox="0 0 50.55 49.28"><defs><radialGradient id="radial-gradient" cx="-183.65" cy="1671.88" r="0.02" gradientTransform="matrix(2291.67, 0, 0, -2218.75, 421816.09, 3710555.94)" gradientUnits="userSpaceOnUse"><stop offset="0" stop-color="#393939" stop-opacity="0.98"/><stop offset="1" stop-color="#0a0a0a"/></radialGradient></defs><title>aftereffects</title><path d="M929.28,1045.82h46.33v45.07H929.28v-45.07Z" transform="translate(-927.18 -1043.72)" style="fill:url(#radial-gradient)"/><path d="M929.28,1045.82h46.33v45.07H929.28v-45.07ZM927.18,1093h50.55v-49.28H927.18V1093Zm35.76-25.53a9.32,9.32,0,0,0,1.56,0c0-.15,0-0.25,0-0.36,0-1.14-.55-3.24-2.74-3.24-2,0-2.89,1.77-3.1,3.64h4.23Zm-4.28,2.89c0,2.84,1.39,4.76,4.59,4.76a8.24,8.24,0,0,0,3.43-.65c0.15-.06.25,0,0.25,0.15v2.63a0.45,0.45,0,0,1-.21.42,9.55,9.55,0,0,1-4.23.8c-5.56,0-7.64-4.11-7.64-8.68,0-5,2.57-9,7.1-9s6.19,3.85,6.19,7A10.65,10.65,0,0,1,968,1070a0.31,0.31,0,0,1-.27.27,30.49,30.49,0,0,1-3.52.15h-5.52v0Zm-11.29-2.15c-0.59-2.34-2-7.43-2.55-9.9h0c-0.44,2.46-1.6,6.63-2.46,9.9h5.05Zm-5.92,3.41-1.66,6.3a0.26,0.26,0,0,1-.32.23h-3.1c-0.21,0-.25-0.06-0.21-0.32l6-20.91a6.46,6.46,0,0,0,.21-1.73,0.17,0.17,0,0,1,.17-0.21H947a0.22,0.22,0,0,1,.25.21l6.7,22.68c0,0.17,0,.27-0.17.27h-3.47a0.29,0.29,0,0,1-.32-0.21l-1.73-6.32h-6.76Z" transform="translate(-927.18 -1043.72)" style="fill:#bcbcbc"/></svg>