<svg id="Layer_1" data-name="Layer 1" xmlns="http://www.w3.org/2000/svg" viewBox="0 0 124.17 46.63"><title>aws</title><path d="M741.19,1062.09c-2.43,0-5.14.94-5.71,4a0.43,0.43,0,0,0,.37.53l2.49,0.3a0.56,0.56,0,0,0,.43-0.5,2,2,0,0,1,2.06-1.56,1.66,1.66,0,0,1,1.43.66,3.43,3.43,0,0,1,.33,1.89v0.37a17.34,17.34,0,0,0-4.82.9A4.46,4.46,0,0,0,735,1073c0,2.72,1.67,4.08,3.82,4.08a5,5,0,0,0,4.22-1.89,6.27,6.27,0,0,0,1.46,1.73,0.51,0.51,0,0,0,.6-0.07v0c0.51-.47,1.44-1.31,2-1.76a0.5,0.5,0,0,0,0-.7,3.61,3.61,0,0,1-1-2.42v-4.08c0-1.73.15-3.33-1.1-4.52a5.72,5.72,0,0,0-3.85-1.3h0Zm33.47,0c-2.43,0-5.14.94-5.71,4a0.43,0.43,0,0,0,.37.53l2.49,0.3a0.56,0.56,0,0,0,.43-0.5,2,2,0,0,1,2.06-1.56,1.66,1.66,0,0,1,1.43.66,3.42,3.42,0,0,1,.3,1.89v0.37a17.12,17.12,0,0,0-4.78.9,4.46,4.46,0,0,0-2.72,4.28c0,2.72,1.67,4.08,3.82,4.08a5,5,0,0,0,4.22-1.89,6.25,6.25,0,0,0,1.46,1.73,0.51,0.51,0,0,0,.6-0.07v0c0.51-.47,1.44-1.31,2-1.76a0.51,0.51,0,0,0,0-.7,3.61,3.61,0,0,1-1-2.42v-4.08c0-1.73.11-3.33-1.13-4.52a5.63,5.63,0,0,0-3.82-1.3h0Zm-18.83.13a3.37,3.37,0,0,0-3.35,2.49h0v-1.76a0.5,0.5,0,0,0-.47-0.47h-2.39a0.51,0.51,0,0,0-.5.5v13.45a0.52,0.52,0,0,0,.47.47h2.56a0.5,0.5,0,0,0,.5-0.5v-7.14c0-1.56-.08-3.69,1.76-3.69s1.56,2.19,1.56,3.69v7.14a0.51,0.51,0,0,0,.47.5H759a0.5,0.5,0,0,0,.5-0.5v-7.14a8.18,8.18,0,0,1,.23-2.56,1.72,1.72,0,0,1,1.53-1.13,1.33,1.33,0,0,1,1.49,1.16,17.77,17.77,0,0,1,.07,2.52v7.14a0.51,0.51,0,0,0,.47.5h2.56a0.5,0.5,0,0,0,.5-0.5v-8.5c0-1.44.15-3.08-.66-4.22a3.73,3.73,0,0,0-6.47,1c-0.72-1.7-1.73-2.49-3.32-2.49h0Zm43.47,0c-3.69,0-5.74,3.25-5.74,7.44s2,7.5,5.74,7.5,5.84-3.27,5.84-7.37-2.06-7.57-5.84-7.57h0Zm14.58,0c-1.77,0-2.77.88-3.49,2.72h0v-2.06a0.49,0.49,0,0,0-.47-0.37h-2.36a0.49,0.49,0,0,0-.5.43v13.45a0.51,0.51,0,0,0,.47.5H810a0.51,0.51,0,0,0,.5-0.5v-7.24a6.22,6.22,0,0,1,.43-2.56,1.64,1.64,0,0,1,1.46-1.06c1.76,0,1.59,2.15,1.59,3.62v7.31a0.5,0.5,0,0,0,.47.43H817a0.51,0.51,0,0,0,.5-0.43V1068c0-1.3,0-3.11-.66-4.18a3.35,3.35,0,0,0-3-1.59h0Zm-30.69.23a0.47,0.47,0,0,0-.47.5v1.93a0.47,0.47,0,0,0,.47.5h4.38l-5,7.41a2.44,2.44,0,0,0-.33,1.33v2a0.44,0.44,0,0,0,.6.43,9.44,9.44,0,0,1,8.87,0,0.46,0.46,0,0,0,.63-0.43V1074a0.87,0.87,0,0,0-.47-0.73,9.12,9.12,0,0,0-4.78-1.06l4.35-6.38a2.7,2.7,0,0,0,.63-1.2v-1.66a0.47,0.47,0,0,0-.47-0.5h-8.4Zm16.11,2.52a1.63,1.63,0,0,1,1.69,1.3,12.74,12.74,0,0,1,.37,3.55c0,1.73-.08,4.58-2.06,4.58s-2-3.54-2-5.18S797.42,1065,799.31,1065Zm-56.76,4.91v0.56a5.28,5.28,0,0,1-.47,2.79,2.06,2.06,0,0,1-1.76,1.2,1.66,1.66,0,0,1-1.56-1.93C738.77,1070.28,740.71,1069.89,742.55,1069.89Zm33.47,0v0.56a5.28,5.28,0,0,1-.47,2.79,2.06,2.06,0,0,1-1.76,1.2,1.66,1.66,0,0,1-1.56-1.93C772.24,1070.28,774.18,1069.89,776,1069.89Z" transform="translate(-701.07 -1044.98)" style="fill:#1d1d1d"/><path d="M792.6,1077.33v1.93h1.3v-1.93h-1.3Zm-37.56.33v13.72h1.2v-1.23a3,3,0,0,0,.9,1.1,2,2,0,0,0,1.2.37,2.79,2.79,0,0,0,2.29-1.36,6.69,6.69,0,0,0,1-3.92,7.91,7.91,0,0,0-.43-2.79,3.84,3.84,0,0,0-1.16-1.73,2.62,2.62,0,0,0-1.63-.6,2.13,2.13,0,0,0-1.16.33,3.06,3.06,0,0,0-.9,1v-4.91H755Zm12.29,3.22a2.69,2.69,0,0,0-2.89,2.86,2.89,2.89,0,0,0,.3,1.3,2.35,2.35,0,0,0,.8.93,9,9,0,0,0,2,.86,4.55,4.55,0,0,1,1.3.56,1.09,1.09,0,0,1,.4.9,1.5,1.5,0,0,1-.47,1.13,1.78,1.78,0,0,1-1.3.43,1.84,1.84,0,0,1-1.36-.5,2.54,2.54,0,0,1-.6-1.56l-1.3.27c0.29,2.13,1.35,3.19,3.19,3.19a3,3,0,0,0,2.29-.86,3.24,3.24,0,0,0,.86-2.33,3.09,3.09,0,0,0-.27-1.33,2.1,2.1,0,0,0-.73-0.86,10.47,10.47,0,0,0-2.09-.86,6.41,6.41,0,0,1-1.39-.6,1,1,0,0,1-.4-0.86,1.17,1.17,0,0,1,.4-0.93,1.89,1.89,0,0,1,1.26-.37,1.56,1.56,0,0,1,1.66,1.63l1.26-.2a4.07,4.07,0,0,0-.47-1.59,2.48,2.48,0,0,0-1-.9,3.24,3.24,0,0,0-1.49-.3h0Zm7.94,0a3.1,3.1,0,0,0-2.59,1.33,6.45,6.45,0,0,0-1,3.92,6.24,6.24,0,0,0,1,3.82,3.13,3.13,0,0,0,2.62,1.3,3,3,0,0,0,2.16-.8,4.38,4.38,0,0,0,1.23-2.39l-1.33-.23c-0.38,1.36-1.09,2-2.06,2a1.88,1.88,0,0,1-1.56-.83,4.47,4.47,0,0,1-.73-2.52h5.71V1086a6.26,6.26,0,0,0-1-3.82,3,3,0,0,0-2.45-1.33h0Zm7.87,0a1.19,1.19,0,0,0-.83.33,4.29,4.29,0,0,0-.83,1.39v-1.53h-1.16V1091h1.3v-5.18a8.32,8.32,0,0,1,.23-2.06,1.7,1.7,0,0,1,.5-0.86,1.12,1.12,0,0,1,.76-0.3,1.54,1.54,0,0,1,.93.37l0.43-1.56a2.13,2.13,0,0,0-1.33-.53h0Zm15.87,0a3,3,0,0,0-2.52,1.3,6.41,6.41,0,0,0-1,3.89,6.48,6.48,0,0,0,1,3.89,2.92,2.92,0,0,0,2.46,1.3,2.82,2.82,0,0,0,2.13-.93,4.71,4.71,0,0,0,1.1-2.72l-1.26-.2a3.35,3.35,0,0,1-.66,1.86,1.61,1.61,0,0,1-1.26.6,1.81,1.81,0,0,1-1.56-.9,5.43,5.43,0,0,1-.6-2.92,5.06,5.06,0,0,1,.63-2.86,1.91,1.91,0,0,1,1.59-.93,1.43,1.43,0,0,1,1.1.5,3.07,3.07,0,0,1,.63,1.53L802,1084a4,4,0,0,0-1-2.36,2.73,2.73,0,0,0-2-.76h0Zm7.41,0a3.1,3.1,0,0,0-2.59,1.33,6.45,6.45,0,0,0-1,3.92,6.24,6.24,0,0,0,1,3.82,3.13,3.13,0,0,0,2.62,1.3,3,3,0,0,0,2.16-.8,4.4,4.4,0,0,0,1.23-2.39l-1.33-.23c-0.38,1.36-1.05,2-2,2a1.94,1.94,0,0,1-1.59-.83,4.48,4.48,0,0,1-.73-2.52h5.71V1086a6.26,6.26,0,0,0-1-3.82,3,3,0,0,0-2.46-1.33h0Zm7.67,0a2.69,2.69,0,0,0-2.89,2.86,2.88,2.88,0,0,0,.27,1.3,2.34,2.34,0,0,0,.8.93,9,9,0,0,0,2,.86,5,5,0,0,1,1.33.56,1.09,1.09,0,0,1,.4.9,1.5,1.5,0,0,1-.47,1.13,1.77,1.77,0,0,1-1.3.43,1.83,1.83,0,0,1-1.36-.5,2.54,2.54,0,0,1-.63-1.56l-1.3.27c0.29,2.13,1.35,3.19,3.19,3.19a3.08,3.08,0,0,0,2.33-.86,3.24,3.24,0,0,0,.86-2.33,3.09,3.09,0,0,0-.27-1.33,2.16,2.16,0,0,0-.76-0.86,9.88,9.88,0,0,0-2.06-.86,7.08,7.08,0,0,1-1.43-.6,1,1,0,0,1-.4-0.86,1.2,1.2,0,0,1,.43-0.93,1.9,1.9,0,0,1,1.26-.37,1.56,1.56,0,0,1,1.66,1.63l1.26-.2a4.07,4.07,0,0,0-.47-1.59,2.48,2.48,0,0,0-1-.9,3.23,3.23,0,0,0-1.49-.3h0Zm-29.62.2,2.89,9.93h1.23l2.89-9.93h-1.33l-1.69,6.08c-0.21.73-.39,1.37-0.5,1.89-0.14-.66-0.28-1.35-0.47-2l-1.66-5.94h-1.36Zm8.14,0V1091h1.3v-9.93h-1.3Zm-42.57.13a3,3,0,0,0-2.52,1.36,6.48,6.48,0,0,0-1,3.92,6.16,6.16,0,0,0,1,3.79,3.17,3.17,0,0,0,2.62,1.33,3,3,0,0,0,2.13-.83,4.4,4.4,0,0,0,1.2-2.39l-1.3-.2c-0.38,1.36-1.06,2-2,2a1.88,1.88,0,0,1-1.56-.83,4.51,4.51,0,0,1-.73-2.52h5.65l0-.47a6.41,6.41,0,0,0-1-3.85,3,3,0,0,0-2.46-1.33h0Zm-14.58.23,2.33,9.93h1.36l1.53-7.64,0.27,1.69,1.23,5.94h1.33l2.36-9.93h-1.23l-1.3,5.74-0.43,1.93-0.4-1.93-1.13-5.74H740l-1.2,5.81-0.4,2.06-0.47-2.13-1.2-5.74h-1.33Zm82.66,0.1V1082h1.26v3.32h0.5V1082h1.26v-0.47h-3Zm3.52,0v3.79h0.47v-3.22l1.1,3.22h0.47l1.1-3.16v3.16h0.5v-3.79h-0.7l-0.9,2.66-0.2.6-0.2-.56-0.9-2.69h-0.73Zm-46.39.7a1.87,1.87,0,0,1,1.59.93,4,4,0,0,1,.53,1.93h-4.28a3.46,3.46,0,0,1,.7-2.06A1.83,1.83,0,0,1,775.23,1082.24Zm31.15,0a1.87,1.87,0,0,1,1.59.93,4,4,0,0,1,.53,1.93h-4.28a3.46,3.46,0,0,1,.7-2.06A1.83,1.83,0,0,1,806.38,1082.24Zm-56.36.37a1.82,1.82,0,0,1,1.56.93,4,4,0,0,1,.53,1.93H747.9a3.57,3.57,0,0,1,.66-2.09A1.79,1.79,0,0,1,750,1082.61Zm8.24,0a1.74,1.74,0,0,1,1.46.93,7.32,7.32,0,0,1,0,5.71,1.75,1.75,0,0,1-1.43,1,1.61,1.61,0,0,1-1.06-.4,2.52,2.52,0,0,1-.73-1.16,7.69,7.69,0,0,1-.27-2.33,5,5,0,0,1,.63-2.76,1.76,1.76,0,0,1,1.43-1h0Z" transform="translate(-701.07 -1044.98)"/><path d="M716.83,1072.08l-4.95,2.13,4.58,2,5.31-2Zm-7.44,2.66-0.17,9.56,7.24,3.19v-9.93l-7.07-2.82h0Zm14.88,0-6.54,2.49v9.36l6.54-2.66v-9.2h0Zm7.8-29.76-5,2.13,4.62,2,5.31-2-4.95-2.13h0Zm-6.91,2.82v9.56l6.18,1.79,0.2-8.7Zm13.81,0.53-5.84,2.49v9.4l5.84-2.66v-9.23Zm-30.3,10.11-4.95,2.13,4.58,2,5.31-2-4.95-2.13h0Zm-7.44,2.66-0.17,9.56,7.24,3.19v-9.93Zm14.88,0-6.54,2.49V1073l6.54-2.66v-9.2Zm8.5-3-4.95,2.13,4.58,2,5.31-2-4.95-2.13h0Zm-7.44,2.66-0.17,9.56,7.24,3.19v-9.93Zm14.88,0-6.54,2.49v9.36l6.54-2.66v-9.2ZM747.64,1045l-4.95,2.13,4.58,2,5.31-2Zm-7.44,2.66L740,1057.2l7.24,3.19v-9.93l-7.07-2.82h0Zm14.88,0-6.54,2.49v9.36l6.54-2.66v-9.2h0Z" transform="translate(-701.07 -1044.98)" style="fill:#afafaf"/></svg>