<svg id="Layer_1" data-name="Layer 1" xmlns="http://www.w3.org/2000/svg" viewBox="0 0 39.5 42.82"><title>electron</title><path d="M712.54,948.82c-5.6-1-10,0-11.78,3.1-1.32,2.28-.94,5.3.91,8.53a0.57,0.57,0,0,0,1-.57c-1.67-2.91-2-5.52-.91-7.39,1.46-2.54,5.41-3.49,10.58-2.55a0.57,0.57,0,1,0,.21-1.13h0Zm-8,15.56a35.91,35.91,0,0,0,8.55,6.75c8.12,4.69,16.76,5.94,21,3a0.57,0.57,0,1,0-.65-0.95c-3.81,2.6-12,1.41-19.8-3.08a34.77,34.77,0,0,1-8.28-6.53,0.57,0.57,0,0,0-.85.77h0Z" transform="translate(-698.6 -939.62)" style="fill:#737373"/><path d="M732.79,963.68c3.66-4.33,4.94-8.68,3.18-11.73-1.29-2.24-4-3.43-7.67-3.47a0.57,0.57,0,1,0,0,1.15c3.27,0,5.63,1.06,6.69,2.9,1.46,2.53.32,6.41-3.07,10.41a0.57,0.57,0,1,0,.88.74h0ZM723.37,949a35.83,35.83,0,0,0-10.23,4.05c-8.38,4.84-13.85,12-13.09,17.14a0.57,0.57,0,1,0,1.14-.17c-0.67-4.59,4.51-11.35,12.52-16a34.69,34.69,0,0,1,9.89-3.92,0.57,0.57,0,0,0-.24-1.12h0Z" transform="translate(-698.6 -939.62)" style="fill:#737373"/><path d="M709.8,973.8c1.92,5.35,5,8.64,8.57,8.64,2.57,0,4.95-1.75,6.8-4.84a0.57,0.57,0,0,0-1-.59c-1.67,2.77-3.71,4.28-5.82,4.28-2.93,0-5.72-2.94-7.49-7.88a0.57,0.57,0,0,0-1.08.39h0Zm17.5-1a36,36,0,0,0,1.52-10.63c0-9.51-3.33-17.7-8.07-19.8a0.57,0.57,0,0,0-.47,1c4.23,1.88,7.38,9.65,7.38,18.76a34.89,34.89,0,0,1-1.47,10.29,0.57,0.57,0,1,0,1.1.34h0Z" transform="translate(-698.6 -939.62)" style="fill:#737373"/><path d="M738.1,972.19a2.75,2.75,0,1,0-2.75,2.75,2.75,2.75,0,0,0,2.75-2.75h0Zm-1.15,0a1.6,1.6,0,1,1-1.6-1.6,1.6,1.6,0,0,1,1.6,1.6h0Z" transform="translate(-698.6 -939.62)" style="fill:#737373"/><path d="M701.35,974.93a2.75,2.75,0,1,0-2.75-2.75,2.75,2.75,0,0,0,2.75,2.75h0Zm0-1.15a1.6,1.6,0,1,1,1.6-1.6,1.6,1.6,0,0,1-1.6,1.6h0Z" transform="translate(-698.6 -939.62)" style="fill:#737373"/><path d="M718.37,945.11a2.75,2.75,0,1,0-2.75-2.75,2.75,2.75,0,0,0,2.75,2.75h0Zm0-1.15a1.6,1.6,0,1,1,1.6-1.6,1.6,1.6,0,0,1-1.6,1.6h0Z" transform="translate(-698.6 -939.62)" style="fill:#737373"/><path d="M718.79,964.06a2,2,0,1,1,1.52-2.36,2,2,0,0,1-1.52,2.36h0Z" transform="translate(-698.6 -939.62)" style="fill:#737373"/></svg>