<svg id="Layer_1" data-name="Layer 1" xmlns="http://www.w3.org/2000/svg" viewBox="0 0 35.47 48.7"><title>firebase</title><path d="M1000.42,978.93l0.29-.41,13.95-26.46,0-.28-6.15-11.55a1.14,1.14,0,0,0-2.13.36Z" transform="translate(-1000.42 -939.62)" style="fill:#c7c7c7"/><path id="a" d="M1000.59,978.61l0.22-.43,13.8-26.18-6.13-11.59a1,1,0,0,0-2,.36Z" transform="translate(-1000.42 -939.62)" style="fill:#b1b1b1"/><path d="M1019.17,960.51l4.58-4.69-4.58-8.74a1.18,1.18,0,0,0-2.08,0l-2.45,4.66v0.4l4.53,8.37h0Z" transform="translate(-1000.42 -939.62)" style="fill:#c3c3c3"/><path id="c" d="M1019.09,960.31l4.45-4.56-4.45-8.47a1,1,0,0,0-1.87-.08l-2.46,4.74-0.07.24Z" transform="translate(-1000.42 -939.62)" style="fill:#afafaf"/><path d="M1000.42,978.93l0.13-.13,0.49-.2,17.84-17.78,0.23-.62-4.45-8.48Z" transform="translate(-1000.42 -939.62)" style="fill:#989898"/><path d="M1019.74,987.89l16.15-9-4.61-28.4a1.1,1.1,0,0,0-1.87-.6l-29,29,16.06,9a3.35,3.35,0,0,0,3.27,0" transform="translate(-1000.42 -939.62)" style="fill:#dbdbdb"/><path d="M1035.75,978.81l-4.58-28.19a1,1,0,0,0-1.68-.61l-28.89,28.86,15.88,8.88a3.33,3.33,0,0,0,3.24,0l16-8.94h0Z" transform="translate(-1000.42 -939.62)" style="fill:#cacaca"/></svg>