<svg id="Layer_1" data-name="Layer 1" xmlns="http://www.w3.org/2000/svg" viewBox="0 0 34.06 48.08"><title>html5</title><path d="M804.36,983.84l-3.1-34.77h34.06l-3.1,34.76-13.95,3.87Z" transform="translate(-801.26 -939.62)"/><path d="M818.29,984.75l11.27-3.12,2.65-29.71H818.29v32.83Z" transform="translate(-801.26 -939.62)"/><path d="M818.29,964.81h-5.64l-0.39-4.37h6v-4.26H807.6l0.1,1.14,1,11.75h9.54v-4.26Zm0,11.08h0l-4.75-1.28-0.3-3.4h-4.28l0.6,6.7,8.74,2.42h0v-4.44Z" transform="translate(-801.26 -939.62)" style="fill:#ebebeb"/><path d="M804.43,939.62h2.17v2.14h2v-2.14h2.17v6.48h-2.17v-2.17h-2v2.17h-2.17v-6.48h0Zm9.17,2.15h-1.91v-2.15h6v2.15h-1.91v4.33h-2.17v-4.33Zm5-2.15h2.26l1.39,2.28,1.39-2.28h2.26v6.48h-2.16v-3.21l-1.49,2.31h0l-1.49-2.31v3.21h-2.12v-6.48h0Zm8.38,0h2.17V944h3v2.14H827v-6.48Z" transform="translate(-801.26 -939.62)"/><path d="M818.27,964.81v4.26h5.25L823,974.6l-4.76,1.28v4.44L827,977.9l0.06-.72,1-11.23,0.1-1.15h-9.91Zm0-8.63v4.26h10.3l0.09-1,0.19-2.16,0.1-1.14H818.27Z" transform="translate(-801.26 -939.62)" style="fill:#fff"/></svg>