<svg id="Layer_1" data-name="Layer 1" xmlns="http://www.w3.org/2000/svg" viewBox="0 0 48.83 48.83"><title>javascript</title><path d="M893.81,939.62h48.83v48.83H893.81V939.62Z" transform="translate(-893.81 -939.62)" style="fill:#d1d1d1"/><path d="M906.65,980.43l3.74-2.26c0.72,1.28,1.38,2.36,2.95,2.36s2.46-.59,2.46-2.88V962h4.59v15.67c0,4.75-2.79,6.92-6.85,6.92a7.12,7.12,0,0,1-6.88-4.2m16.23-.49,3.74-2.16a5,5,0,0,0,4.52,2.79c1.9,0,3.11-1,3.11-2.26,0-1.57-1.25-2.13-3.34-3l-1.15-.49c-3.31-1.41-5.51-3.18-5.51-6.92,0-3.44,2.62-6.06,6.72-6.06a6.78,6.78,0,0,1,6.52,3.67l-3.57,2.29a3.12,3.12,0,0,0-2.95-2,2,2,0,0,0-2.2,2c0,1.38.85,1.93,2.82,2.79l1.15,0.49c3.9,1.67,6.1,3.38,6.1,7.21,0,4.13-3.24,6.39-7.6,6.39s-7-2-8.36-4.69" transform="translate(-893.81 -939.62)"/></svg>