<svg id="Layer_1" data-name="Layer 1" xmlns="http://www.w3.org/2000/svg" viewBox="0 0 142.83 40.7"><title>mongodb</title><path d="M429.07,1064.83a0.57,0.57,0,0,0-.26.46c0,1-.05,3.76-0.05,5.62a0.19,0.19,0,0,0,.15.15c0.39,0,1.31.05,2.11,0.05a5.52,5.52,0,0,0,2.11-.31,2.74,2.74,0,0,0,1.37-2.58c0-2.5-1.75-3.45-4.36-3.45a4.13,4.13,0,0,0-1.08.05h0Zm6.65,11.52c0-2.55-1.88-4-5.28-4-0.15,0-1.24,0-1.5,0a0.23,0.23,0,0,0-.18.16c0,1.83,0,4.74.05,5.88a1.94,1.94,0,0,0,.85,1.39,5.9,5.9,0,0,0,2.24.31,3.52,3.52,0,0,0,3.81-3.79h0Zm-11.91-12.94c0.26,0,1,.08,3,0.08s3.38-.05,5.21-0.05c2.24,0,5.33.8,5.33,4.15a4,4,0,0,1-2.68,3.61c-0.08,0-.08.08,0,0.1,2.16,0.54,4.07,1.88,4.07,4.41s-1.55,4-3.79,5a12.33,12.33,0,0,1-4.79.8c-1.31,0-4.85-.15-6.8-0.1a1.47,1.47,0,0,1,.36-1.16,4.81,4.81,0,0,0,1.31-.21c0.7-.18.77-0.39,0.88-1.44,0.05-.9.05-4.1,0.05-6.37,0-3.12,0-5.23,0-6.26a1.06,1.06,0,0,0-.88-1.21c-0.44-.08-1.16-0.18-1.75-0.26a1.81,1.81,0,0,1,.46-1.11h0Zm-14.87,16a5.2,5.2,0,0,0,2.91.7,5.71,5.71,0,0,0,4.12-1.47c1.37-1.24,2.32-3.14,2.32-6.19a7.38,7.38,0,0,0-3.38-6.68,9.12,9.12,0,0,0-4.85-1.13,3.86,3.86,0,0,0-1.44.18,0.76,0.76,0,0,0-.26.41c-0.05.52-.05,4.48-0.05,6.8s0,5.75.05,6.13a1.6,1.6,0,0,0,.57,1.24h0Zm-5.85-16c0.49,0,2.37.08,3.27,0.08,1.62,0,2.78-.08,5.85-0.08a9.53,9.53,0,0,1,6.29,2,8.36,8.36,0,0,1,2.86,6.6,8.64,8.64,0,0,1-3.56,7.42,11.92,11.92,0,0,1-7.4,2.09c-1.75,0-4.77-.05-7.27-0.08h0a1.38,1.38,0,0,1,.41-1.16,4.11,4.11,0,0,0,1.19-.23c0.54-.21.64-0.49,0.72-1.44,0.08-1.78.05-3.92,0.05-6.34,0-1.73,0-5.1,0-6.19a1.23,1.23,0,0,0-1.24-1.29c-0.39-.08-0.9-0.18-1.62-0.26a2.31,2.31,0,0,1,.49-1.13h0Z" transform="translate(-295.93 -1048)" style="fill:#767676"/><path d="M371.91,1080.45a5.18,5.18,0,0,1-1.68-.44,0.79,0.79,0,0,1-.21-0.41c-0.05-.9-0.05-3.48-0.05-5.21a6.08,6.08,0,0,0-.82-3.45,3.52,3.52,0,0,0-3-1.55,6.89,6.89,0,0,0-3.92,1.86s-0.23.21-.21-0.08,0.05-.85.08-1.24a0.67,0.67,0,0,0-.18-0.54,17.2,17.2,0,0,1-4,1c-0.62.13-.77,0.72-0.13,0.93h0a5.72,5.72,0,0,1,1.52.67,0.8,0.8,0,0,1,.23.72c0,1.93,0,4.9-.05,6.52a0.82,0.82,0,0,1-.67,1l0.05,0a10.18,10.18,0,0,1-1.08.21,1.51,1.51,0,0,0,0,1.16c0.28,0,1.78-.08,3-0.08,1.7,0,2.58.08,3,.08a1.68,1.68,0,0,0,.13-1.16,4.77,4.77,0,0,1-1.19-.18,0.74,0.74,0,0,1-.62-0.88c-0.05-1.37-.05-4.25-0.05-6.21a1.24,1.24,0,0,1,.31-1,3.9,3.9,0,0,1,2.4-.88,2.66,2.66,0,0,1,1.78.59,2.53,2.53,0,0,1,.82,1.62c0.13,1.11.08,3.3,0.08,5.21,0,1-.08,1.29-0.46,1.42a4.91,4.91,0,0,1-1.19.23,1.51,1.51,0,0,0,0,1.16c0.75,0,1.62-.08,2.91-0.08,1.6,0,2.63.08,3,.08a1.8,1.8,0,0,0,.08-1.11h0Zm7.14-9.84c-1.37,0-2.22,1.06-2.22,2.71s0.75,3.61,2.86,3.61a2,2,0,0,0,1.34-.52,3.41,3.41,0,0,0,.83-2.37c0-2.14-1.06-3.43-2.81-3.43h0ZM378.87,1082a2.22,2.22,0,0,0-1.11.28c-1.08.7-1.57,1.37-1.57,2.17a2.28,2.28,0,0,0,.9,1.86,4.58,4.58,0,0,0,3.09,1c2.63,0,3.79-1.42,3.79-2.81a2,2,0,0,0-1.49-2,10.41,10.41,0,0,0-3.61-.46h0Zm0.18,6.7a5.7,5.7,0,0,1-3.69-1.08,3.4,3.4,0,0,1-1.37-2.55,2,2,0,0,1,.52-1.29,13.67,13.67,0,0,1,2.37-1.91,0.11,0.11,0,0,0,.08-0.1,0.17,0.17,0,0,0-.1-0.13,2.45,2.45,0,0,1-1.68-1.62V1080a0.37,0.37,0,0,1,.16-0.46c0.18-.13.44-0.28,0.72-0.46a10.59,10.59,0,0,0,1.19-.77,0.19,0.19,0,0,0,.05-0.15,0.17,0.17,0,0,0-.1-0.13,3.76,3.76,0,0,1-2.71-3.94,3.91,3.91,0,0,1,1.65-3.25,7.58,7.58,0,0,1,3.71-1.26h0.08a7.9,7.9,0,0,1,2.83.62,4.77,4.77,0,0,0,1.68.26,2.23,2.23,0,0,0,1.8-.67,1.4,1.4,0,0,1,.1.52,2,2,0,0,1-.34,1.19,1.46,1.46,0,0,1-1.13.49h-0.13a5.74,5.74,0,0,1-.67-0.1l-0.1.05a0.24,0.24,0,0,0,0,.18l0,0.05a9.51,9.51,0,0,1,.15,1.11,4.18,4.18,0,0,1-1.75,3.74,5.94,5.94,0,0,1-3,1.16l-0.36,0-0.34,0h0a0.93,0.93,0,0,0-.72.75c0,0.39.23,0.85,1.34,0.93l0.72,0.05a22.6,22.6,0,0,1,4.15.52,2.89,2.89,0,0,1,1.93,2.76c0,1.91-1.37,3.69-3.63,4.79a8.29,8.29,0,0,1-3.43.75h0Zm14.69-18a2.39,2.39,0,0,0-1.39.39c-1,.62-1.52,1.86-1.52,3.66,0,3.38,1.7,5.75,4.12,5.75a2.62,2.62,0,0,0,1.78-.62c0.75-.62,1.13-1.86,1.13-3.58,0-3.35-1.68-5.59-4.12-5.59h0Zm0.46,11c-4.38,0-6-3.22-6-6.24a5.58,5.58,0,0,1,2.55-4.9,7.76,7.76,0,0,1,3.94-1.16,5.52,5.52,0,0,1,5.7,5.85,6,6,0,0,1-2.71,5.33,7.15,7.15,0,0,1-3.53,1.11h0Zm-45.93-11a2.39,2.39,0,0,0-1.39.39c-1,.62-1.52,1.86-1.52,3.66,0,3.38,1.7,5.75,4.12,5.75a2.62,2.62,0,0,0,1.78-.62c0.75-.62,1.13-1.86,1.13-3.58,0-3.35-1.65-5.59-4.12-5.59h0Zm0.46,11c-4.38,0-6-3.22-6-6.24a5.58,5.58,0,0,1,2.55-4.9,7.76,7.76,0,0,1,3.94-1.16,5.52,5.52,0,0,1,5.7,5.85,6,6,0,0,1-2.71,5.33,7,7,0,0,1-3.53,1.11h0Zm-29.46-.26a1.1,1.1,0,0,1-.08-0.59,0.87,0.87,0,0,1,.08-0.39,9.51,9.51,0,0,0,1.13-.23,0.93,0.93,0,0,0,.75-1.06c0.08-1.55.08-4.48,0.05-6.52v-0.05a0.78,0.78,0,0,0-.28-0.72,5.82,5.82,0,0,0-1.55-.67,0.4,0.4,0,0,1-.36-0.36,0.48,0.48,0,0,1,.49-0.39,18.86,18.86,0,0,0,3.94-1,0.64,0.64,0,0,1,.13.41l0,0.28c0,0.28-.05.62-0.05,1a0.2,0.2,0,0,0,.21.18,0.36,0.36,0,0,0,.15-0.05,7.27,7.27,0,0,1,3.92-1.75,3.34,3.34,0,0,1,3,1.83,0.19,0.19,0,0,0,.18.1,0.18,0.18,0,0,0,.15-0.08,7.83,7.83,0,0,1,4-1.86c2.4,0,3.81,1.78,3.81,4.79,0,0.85,0,2,0,3s0,1.73,0,2.32a0.81,0.81,0,0,0,.46.62,5.5,5.5,0,0,0,1.5.36h0a2.07,2.07,0,0,1-.15,1,6.33,6.33,0,0,1-.64,0q-1-.05-2-0.05c-1.6,0-2.42,0-3.22.08a2.51,2.51,0,0,1,0-1,8,8,0,0,0,1-.23,0.88,0.88,0,0,0,.67-1.06c0-.49.1-4.66-0.05-5.67a2.54,2.54,0,0,0-2.63-2.24,4.57,4.57,0,0,0-2.63,1,0.46,0.46,0,0,0-.1.26v0a11.87,11.87,0,0,1,.1,2.11v1.68c0,1.16,0,2.24,0,3.07a0.76,0.76,0,0,0,.62.8l0.39,0.08,0.82,0.18a1.39,1.39,0,0,1,0,.72,0.49,0.49,0,0,1-.1.26c-0.88,0-1.78-.05-3.09-0.05l-1.62,0c-0.46,0-.9,0-1.16,0a1.36,1.36,0,0,1-.08-0.52,0.8,0.8,0,0,1,.1-0.46,1.74,1.74,0,0,1,.36-0.05l0.82-.15a0.81,0.81,0,0,0,.62-0.93,44.73,44.73,0,0,0,0-5.9,2.43,2.43,0,0,0-2.53-2.24,4.73,4.73,0,0,0-2.63,1,0.83,0.83,0,0,0-.23.59v1.52c0,1.86,0,4.18,0,5.18a0.8,0.8,0,0,0,.72.8,5.4,5.4,0,0,0,.59.1l0.46,0.08a2.16,2.16,0,0,1-.08,1l-0.93,0c-0.54,0-1.24-.05-2-0.05s-1.55,0-2.06.05a6.23,6.23,0,0,0-1-.05h0Z" transform="translate(-295.93 -1048)" style="fill:#333"/><path d="M305.72,1087.69l-1.06-.36s0.13-5.39-1.8-5.77c-1.29-1.5.21-63.4,4.85-.21a3.77,3.77,0,0,0-1.88,2.17,19.88,19.88,0,0,0-.1,4.18h0Z" transform="translate(-295.93 -1048)" style="fill:#fff"/><path d="M305.72,1087.69l-1.06-.36s0.13-5.39-1.8-5.77c-1.29-1.5.21-63.4,4.85-.21a3.77,3.77,0,0,0-1.88,2.17,19.88,19.88,0,0,0-.1,4.18h0Z" transform="translate(-295.93 -1048)" style="fill:#a1a1a1"/><path d="M306.29,1082.48s9.25-6.08,7.09-18.74c-2.09-9.2-7-12.22-7.55-13.38a13,13,0,0,1-1.16-2.27l0.39,25.59s-0.8,7.84,1.24,8.79" transform="translate(-295.93 -1048)" style="fill:#fff"/><path d="M306.29,1082.48s9.25-6.08,7.09-18.74c-2.09-9.2-7-12.22-7.55-13.38a13,13,0,0,1-1.16-2.27l0.39,25.59s-0.8,7.84,1.24,8.79" transform="translate(-295.93 -1048)" style="fill:#7b7b7b"/><path d="M304.13,1082.82s-8.69-5.93-8.17-16.37,6.62-15.57,7.81-16.49a2.4,2.4,0,0,0,.85-2c0.54,1.16.44,17.35,0.52,19.25C305.36,1074.6,304.72,1081.43,304.13,1082.82Z" transform="translate(-295.93 -1048)" style="fill:#fff"/><path d="M304.13,1082.82s-8.69-5.93-8.17-16.37,6.62-15.57,7.81-16.49a2.4,2.4,0,0,0,.85-2c0.54,1.16.44,17.35,0.52,19.25C305.36,1074.6,304.72,1081.43,304.13,1082.82Z" transform="translate(-295.93 -1048)" style="fill:#878787"/></svg>