<svg id="Layer_1" data-name="Layer 1" xmlns="http://www.w3.org/2000/svg" viewBox="0 0 103.74 53.87"><title>mysql</title><path d="M513.39,1085h3.42v-13.56l5.35,11.83a3.52,3.52,0,0,0,6.29,0l5.32-11.83V1085h3.45v-13.56a2.07,2.07,0,0,0-1.63-2.29c-2.61-.79-4.35-0.11-5.14,1.66l-5.24,11.69-5.06-11.69c-0.76-1.76-2.53-2.45-5.16-1.66a2.08,2.08,0,0,0-1.61,2.29V1085h0Zm26.68-11h3.45v7.45c0,0.42.13,1.37,2,1.4,1,0,7.43,0,7.48,0v-8.9h3.45v12.19c0,3-3.71,3.66-5.45,3.69H540.14v-2.29H551c2.21-.24,1.95-1.34,1.95-1.71v-0.9h-7.3c-3.4,0-5.58-1.53-5.61-3.24,0-.16.08-7.64,0-7.69h0Zm74-8.64a12.19,12.19,0,0,0-5.11.74c-0.39.16-1,.16-1.08,0.66a5,5,0,0,1,.42.84,6.16,6.16,0,0,0,1.37,1.61c0.55,0.42,1.11.84,1.69,1.21,1,0.63,2.19,1,3.19,1.63,0.58,0.37,1.16.84,1.74,1.24a3.56,3.56,0,0,0,.84.68v-0.08c-0.18-.24-0.24-0.58-0.42-0.84l-0.79-.76a12.45,12.45,0,0,0-2.74-2.66c-0.84-.58-2.69-1.37-3-2.34l-0.05-.05a10.59,10.59,0,0,0,1.82-.42c0.9-.24,1.71-0.19,2.63-0.42q0.64-.17,1.26-0.37v-0.24c-0.47-.47-0.82-1.11-1.32-1.55a35.23,35.23,0,0,0-4.35-3.24c-0.82-.53-1.87-0.87-2.74-1.32a2.89,2.89,0,0,1-1-.5,10.65,10.65,0,0,1-1.08-2c-0.76-1.45-1.5-3.05-2.16-4.58a28.08,28.08,0,0,0-1.34-3,26.55,26.55,0,0,0-10.19-9.85,12.67,12.67,0,0,0-3.37-1.08l-2-.11a10.53,10.53,0,0,1-1.21-.92c-1.5-.95-5.37-3-6.48-0.29-0.71,1.71,1.05,3.4,1.66,4.27a12.43,12.43,0,0,1,1.34,2c0.18,0.45.24,0.92,0.42,1.4a31.8,31.8,0,0,0,1.37,3.53,12.79,12.79,0,0,0,1,1.63,2,2,0,0,1,.66.9,7.5,7.5,0,0,0-.61,2,11.61,11.61,0,0,0,.76,8.85c0.42,0.66,1.42,2.11,2.77,1.55,1.18-.47.92-2,1.26-3.29a1.89,1.89,0,0,1,.19-0.74v0.05c0.37,0.74.74,1.45,1.08,2.19a15,15,0,0,0,3.42,3.53,8.55,8.55,0,0,0,1.92,1.58v-0.08h-0.05a2.94,2.94,0,0,0-.61-0.53,12.74,12.74,0,0,1-1.37-1.58,33.83,33.83,0,0,1-3-4.79c-0.42-.82-0.79-1.71-1.13-2.53a2.27,2.27,0,0,0-.42-0.95A9.86,9.86,0,0,0,588,1058a14.82,14.82,0,0,0-.74,4c-0.11,0-.05,0-0.11.05a2.57,2.57,0,0,1-1.45-1.82,11.39,11.39,0,0,1-.24-7c0.18-.55,1-2.29.66-2.82a4.68,4.68,0,0,0-1-1.19,10.62,10.62,0,0,1-.95-1.69c-0.63-1.47-.95-3.11-1.63-4.58a14,14,0,0,0-1.32-2,13,13,0,0,1-1.45-2.05,1.21,1.21,0,0,1-.11-1.08,0.42,0.42,0,0,1,.37-0.34c0.34-.29,1.32.08,1.66,0.24a13.45,13.45,0,0,1,2.61,1.32,4.64,4.64,0,0,0,1.24.9h0.55c0.84,0.18,1.79.05,2.58,0.29a16.85,16.85,0,0,1,3.79,1.82,23.37,23.37,0,0,1,8.22,9c0.32,0.61.45,1.16,0.74,1.79,0.55,1.29,1.24,2.61,1.79,3.87a17.3,17.3,0,0,0,1.87,3.53c0.4,0.55,2,.84,2.69,1.13a18.52,18.52,0,0,1,1.82.74c0.9,0.55,1.79,1.19,2.63,1.79,0.42,0.32,1.74,1,1.82,1.5h0Z" transform="translate(-513.38 -1035.94)"/><path d="M587.21,1042.45a4.18,4.18,0,0,0-1.08.13v0.05h0.05a8.63,8.63,0,0,0,.84,1.08c0.21,0.42.4,0.84,0.61,1.26l0.05-.05a1.49,1.49,0,0,0,.55-1.32,5.85,5.85,0,0,1-.32-0.55A4.05,4.05,0,0,0,587.21,1042.45ZM559.08,1085H569a7.52,7.52,0,0,0,3.16-.66c1.5-.68,2.21-1.61,2.21-2.82V1079c0-1-.82-1.9-2.45-2.53a8.61,8.61,0,0,0-2.92-.5h-4.16c-1.4,0-2.05-.42-2.24-1.34a1.3,1.3,0,0,1,0-.32v-1.55a1.2,1.2,0,0,1,0-.29c0.18-.71.55-0.9,1.77-1h10.14v-2.29h-9.64a8.92,8.92,0,0,0-2.79.29c-2,.63-2.92,1.63-2.92,3.4v2c0,1.55,1.74,2.87,4.69,3.19,0.32,0,.66,0,1,0h3.56a1.61,1.61,0,0,1,.37,0,2.45,2.45,0,0,1,1.87.68,0.8,0.8,0,0,1,.26.63v2a1.17,1.17,0,0,1-.47.82,2.45,2.45,0,0,1-1.48.47c-0.13,0-.21,0-0.34,0h-9.51V1085Zm36.71-4c0,2.34,1.76,3.66,5.29,3.92,0.34,0,.66.05,1,0.05h9v-2.29h-9c-2,0-2.76-.5-2.76-1.71v-11.85h-3.45V1081h0Zm-19.25.1V1073c0-2.08,1.48-3.35,4.35-3.74,0.32,0,.63-0.05.92-0.05h6.53c0.34,0,.63,0,1,0.05,2.87,0.39,4.32,1.66,4.32,3.74v8.16a3,3,0,0,1-2,3.19l3.37,3.05h-4l-2.74-2.48-2.77.16h-3.69a8,8,0,0,1-2-.26c-2.19-.61-3.27-1.76-3.27-3.66h0Zm3.71-.18a2.05,2.05,0,0,0,.08.34c0.19,0.95,1.08,1.47,2.45,1.47h3.11l-2.84-2.58h4l2.5,2.26a1.65,1.65,0,0,0,.87-1.11,1.56,1.56,0,0,0,0-.34v-7.82a1.33,1.33,0,0,0,0-.32c-0.19-.9-1.08-1.4-2.42-1.4h-5.19c-1.53,0-2.53.66-2.53,1.71V1081h0Zm32.37,4.08h0.5v-1.92h0.66v-0.39h-1.84v0.39h0.68V1085h0Zm3.82,0h0.47v-2.32H616.2l-0.58,1.58-0.63-1.58H614.3V1085h0.45v-1.76h0l0.66,1.76h0.34l0.66-1.76V1085Z" transform="translate(-513.38 -1035.94)"/></svg>