<svg id="Layer_1" data-name="Layer 1" xmlns="http://www.w3.org/2000/svg" viewBox="0 0 44.06 48.55"><title>nodejs</title><path d="M516.5,940.14a4.07,4.07,0,0,1,4,0l18.16,10.25a3.74,3.74,0,0,1,1.89,3.22v20.57a3.78,3.78,0,0,1-2,3.29L520.4,987.68a4,4,0,0,1-4-.11l-5.43-3.14a3.2,3.2,0,0,1-1-.75,2,2,0,0,1,1-.49,12.67,12.67,0,0,0,2.14-1,0.5,0.5,0,0,1,.56,0c1.55,0.89,3.08,1.8,4.63,2.68a1,1,0,0,0,.95-0.22l17.76-10a0.59,0.59,0,0,0,.32-0.58q0-10.18,0-20.36a0.64,0.64,0,0,0-.38-0.63l-18-10.16a0.63,0.63,0,0,0-.71,0l-18,10.16a0.63,0.63,0,0,0-.38.63q0,10.18,0,20.36a0.58,0.58,0,0,0,.33.57l4.81,2.72a3.72,3.72,0,0,0,3,.4,2.28,2.28,0,0,0,1.48-2.15c0-6.75,0-13.49,0-20.24a0.51,0.51,0,0,1,.55-0.52c0.77,0,1.54,0,2.31,0a0.53,0.53,0,0,1,.5.62c0,6.79,0,13.58,0,20.37a5.16,5.16,0,0,1-2.42,4.66,7.44,7.44,0,0,1-6.65-.18c-1.76-.88-3.45-1.92-5.18-2.86a3.77,3.77,0,0,1-2-3.29V953.61a3.74,3.74,0,0,1,2-3.26Z" transform="translate(-496.46 -939.62)" style="fill:#a8a8a8"/><path d="M521.76,954.39c2.63-.17,5.45-0.1,7.81,1.2a5.91,5.91,0,0,1,2.88,5.11,0.55,0.55,0,0,1-.6.41c-0.76,0-1.53,0-2.29,0a0.59,0.59,0,0,1-.55-0.57,3.49,3.49,0,0,0-1.67-2.41,9.88,9.88,0,0,0-4.57-.65,6.21,6.21,0,0,0-3.27.82,1.75,1.75,0,0,0,.78,3.26c3.17,0.83,6.53.75,9.64,1.84a4.54,4.54,0,0,1,3,2.66,5.68,5.68,0,0,1-1,5.42,7.59,7.59,0,0,1-4.07,2.2,19.57,19.57,0,0,1-6.15.26,9.69,9.69,0,0,1-5.41-2,5.68,5.68,0,0,1-1.83-4.48,0.51,0.51,0,0,1,.56-0.45h2.31a0.54,0.54,0,0,1,.55.53,3.49,3.49,0,0,0,1.3,2.45c1.56,1,3.52.94,5.31,1,1.48-.07,3.14-0.09,4.35-1.06a2.4,2.4,0,0,0,.65-2.3,2.08,2.08,0,0,0-1.51-1.2c-3.13-1-6.53-.63-9.62-1.75a4.68,4.68,0,0,1-3-2.58,5.28,5.28,0,0,1,1.05-5.49,8.51,8.51,0,0,1,5.28-2.12h0Z" transform="translate(-496.46 -939.62)" style="fill:#a8a8a8"/></svg>