<svg id="Layer_1" data-name="Layer 1" xmlns="http://www.w3.org/2000/svg" viewBox="0 0 50.13 23.93"><title>php</title><g id="Layer_2" data-name="Layer 2"><path d="M203.66,959.33q2.35,0,3.13.87t0.37,3a5,5,0,0,1-1.65,3.13,6,6,0,0,1-3.71.94H199.3l1.54-7.91h2.82Zm-10,15.92h4.12l1-5h3.53a12.63,12.63,0,0,0,3.84-.49,7.28,7.28,0,0,0,2.74-1.64,8.22,8.22,0,0,0,2.59-4.63q0.65-3.36-1-5.24t-5.21-1.88h-7.92Z" transform="translate(-193.62 -951.32)"/><path d="M214.44,951.32h4.09l-1,5h3.64q3.44,0,4.74,1.2t0.78,3.88l-1.71,8.8h-4.15l1.63-8.37a2.27,2.27,0,0,0-.2-1.95,2.87,2.87,0,0,0-2.05-.52H217l-2.11,10.83h-4.09Z" transform="translate(-193.62 -951.32)"/><path d="M235.8,959.33q2.35,0,3.13.87t0.37,3a5,5,0,0,1-1.65,3.13,6,6,0,0,1-3.71.94h-2.51l1.54-7.91h2.82Zm-10,15.92h4.12l1-5h3.53a12.63,12.63,0,0,0,3.84-.49,7.28,7.28,0,0,0,2.74-1.64,8.22,8.22,0,0,0,2.59-4.63q0.65-3.36-1-5.24t-5.21-1.88h-7.92Z" transform="translate(-193.62 -951.32)"/></g></svg>