<svg id="Layer_1" data-name="Layer 1" xmlns="http://www.w3.org/2000/svg" viewBox="0 0 42.91 48.55"><title>webpack</title><path d="M318.62,939.62l21.46,12.14V976l-21.46,12.14L297.16,976V951.76Z" transform="translate(-297.16 -939.62)" style="fill:#fff"/><path d="M336.24,975.2l-16.92,9.57v-7.45l10.54-5.8Zm1.16-1v-20l-6.19,3.57v12.86l6.19,3.58h0Zm-36.48,1,16.92,9.57v-7.45l-10.54-5.8-6.38,3.68h0Zm-1.16-1v-20l6.19,3.57v12.86l-6.19,3.58h0Zm0.72-21.31L317.84,943v7.21l-11.11,6.11-0.08,0Zm36.18,0L319.33,943v7.21l11.11,6.11,0.08,0Z" transform="translate(-297.16 -939.62)" style="fill:#c4c4c4"/><path d="M317.84,975.62l-10.4-5.72V958.57l10.4,6v11m1.48,0,10.4-5.72V958.57l-10.4,6v11m-11.18-18.36,10.44-5.74L329,957.26l-10.44,6-10.44-6" transform="translate(-297.16 -939.62)" style="fill:#646464"/></svg>