<svg id="visual" viewBox="0 0 1200 675" width="1200" height="675" xmlns="http://www.w3.org/2000/svg" xmlns:xlink="http://www.w3.org/1999/xlink" version="1.1"><path d="M0 75L18.2 75C36.3 75 72.7 75 109 84C145.3 93 181.7 111 218 110C254.3 109 290.7 89 327 91.3C363.3 93.7 399.7 118.3 436 120.5C472.3 122.7 508.7 102.3 545.2 96.7C581.7 91 618.3 100 654.8 101.2C691.3 102.3 727.7 95.7 764 92.3C800.3 89 836.7 89 873 92.3C909.3 95.7 945.7 102.3 982 109C1018.3 115.7 1054.7 122.3 1091 124.7C1127.3 127 1163.7 125 1181.8 124L1200 123L1200 0L1181.8 0C1163.7 0 1127.3 0 1091 0C1054.7 0 1018.3 0 982 0C945.7 0 909.3 0 873 0C836.7 0 800.3 0 764 0C727.7 0 691.3 0 654.8 0C618.3 0 581.7 0 545.2 0C508.7 0 472.3 0 436 0C399.7 0 363.3 0 327 0C290.7 0 254.3 0 218 0C181.7 0 145.3 0 109 0C72.7 0 36.3 0 18.2 0L0 0Z" fill="#ff7993"></path><path d="M0 204L18.2 192.7C36.3 181.3 72.7 158.7 109 166.5C145.3 174.3 181.7 212.7 218 219.5C254.3 226.3 290.7 201.7 327 200.5C363.3 199.3 399.7 221.7 436 217.2C472.3 212.7 508.7 181.3 545.2 174.7C581.7 168 618.3 186 654.8 187C691.3 188 727.7 172 764 164C800.3 156 836.7 156 873 170.7C909.3 185.3 945.7 214.7 982 228.2C1018.3 241.7 1054.7 239.3 1091 228.2C1127.3 217 1163.7 197 1181.8 187L1200 177L1200 121L1181.8 122C1163.7 123 1127.3 125 1091 122.7C1054.7 120.3 1018.3 113.7 982 107C945.7 100.3 909.3 93.7 873 90.3C836.7 87 800.3 87 764 90.3C727.7 93.7 691.3 100.3 654.8 99.2C618.3 98 581.7 89 545.2 94.7C508.7 100.3 472.3 120.7 436 118.5C399.7 116.3 363.3 91.7 327 89.3C290.7 87 254.3 107 218 108C181.7 109 145.3 91 109 82C72.7 73 36.3 73 18.2 73L0 73Z" fill="#ff5678"></path><path d="M0 305L18.2 293.7C36.3 282.3 72.7 259.7 109 259.7C145.3 259.7 181.7 282.3 218 288C254.3 293.7 290.7 282.3 327 280C363.3 277.7 399.7 284.3 436 279.8C472.3 275.3 508.7 259.7 545.2 257.5C581.7 255.3 618.3 266.7 654.8 266.7C691.3 266.7 727.7 255.3 764 246.3C800.3 237.3 836.7 230.7 873 239.7C909.3 248.7 945.7 273.3 982 283.5C1018.3 293.7 1054.7 289.3 1091 286C1127.3 282.7 1163.7 280.3 1181.8 279.2L1200 278L1200 175L1181.8 185C1163.7 195 1127.3 215 1091 226.2C1054.7 237.3 1018.3 239.7 982 226.2C945.7 212.7 909.3 183.3 873 168.7C836.7 154 800.3 154 764 162C727.7 170 691.3 186 654.8 185C618.3 184 581.7 166 545.2 172.7C508.7 179.3 472.3 210.7 436 215.2C399.7 219.7 363.3 197.3 327 198.5C290.7 199.7 254.3 224.3 218 217.5C181.7 210.7 145.3 172.3 109 164.5C72.7 156.7 36.3 179.3 18.2 190.7L0 202Z" fill="#ff225c"></path><path d="M0 534L18.2 504.8C36.3 475.7 72.7 417.3 109 405C145.3 392.7 181.7 426.3 218 428.5C254.3 430.7 290.7 401.3 327 400.2C363.3 399 399.7 426 436 423.8C472.3 421.7 508.7 390.3 545.2 402.8C581.7 415.3 618.3 471.7 654.8 499.8C691.3 528 727.7 528 764 518.8C800.3 509.7 836.7 491.3 873 480C909.3 468.7 945.7 464.3 982 451C1018.3 437.7 1054.7 415.3 1091 433.3C1127.3 451.3 1163.7 509.7 1181.8 538.8L1200 568L1200 276L1181.8 277.2C1163.7 278.3 1127.3 280.7 1091 284C1054.7 287.3 1018.3 291.7 982 281.5C945.7 271.3 909.3 246.7 873 237.7C836.7 228.7 800.3 235.3 764 244.3C727.7 253.3 691.3 264.7 654.8 264.7C618.3 264.7 581.7 253.3 545.2 255.5C508.7 257.7 472.3 273.3 436 277.8C399.7 282.3 363.3 275.7 327 278C290.7 280.3 254.3 291.7 218 286C181.7 280.3 145.3 257.7 109 257.7C72.7 257.7 36.3 280.3 18.2 291.7L0 303Z" fill="#de1a4f"></path><path d="M0 676L18.2 676C36.3 676 72.7 676 109 676C145.3 676 181.7 676 218 676C254.3 676 290.7 676 327 676C363.3 676 399.7 676 436 676C472.3 676 508.7 676 545.2 676C581.7 676 618.3 676 654.8 676C691.3 676 727.7 676 764 676C800.3 676 836.7 676 873 676C909.3 676 945.7 676 982 676C1018.3 676 1054.7 676 1091 676C1127.3 676 1163.7 676 1181.8 676L1200 676L1200 566L1181.8 536.8C1163.7 507.7 1127.3 449.3 1091 431.3C1054.7 413.3 1018.3 435.7 982 449C945.7 462.3 909.3 466.7 873 478C836.7 489.3 800.3 507.7 764 516.8C727.7 526 691.3 526 654.8 497.8C618.3 469.7 581.7 413.3 545.2 400.8C508.7 388.3 472.3 419.7 436 421.8C399.7 424 363.3 397 327 398.2C290.7 399.3 254.3 428.7 218 426.5C181.7 424.3 145.3 390.7 109 403C72.7 415.3 36.3 473.7 18.2 502.8L0 532Z" fill="#be1342"></path></svg>