<svg id="visual" viewBox="0 0 1200 675" width="1200" height="675" xmlns="http://www.w3.org/2000/svg" xmlns:xlink="http://www.w3.org/1999/xlink" version="1.1"><path d="M0 224L18.2 206C36.3 188 72.7 152 109 139.7C145.3 127.3 181.7 138.7 218 137.5C254.3 136.3 290.7 122.7 327 115.8C363.3 109 399.7 109 436 112.3C472.3 115.7 508.7 122.3 545.2 125.7C581.7 129 618.3 129 654.8 143.7C691.3 158.3 727.7 187.7 764 210.2C800.3 232.7 836.7 248.3 873 237.2C909.3 226 945.7 188 982 171.2C1018.3 154.3 1054.7 158.7 1091 168.7C1127.3 178.7 1163.7 194.3 1181.8 202.2L1200 210L1200 0L1181.8 0C1163.7 0 1127.3 0 1091 0C1054.7 0 1018.3 0 982 0C945.7 0 909.3 0 873 0C836.7 0 800.3 0 764 0C727.7 0 691.3 0 654.8 0C618.3 0 581.7 0 545.2 0C508.7 0 472.3 0 436 0C399.7 0 363.3 0 327 0C290.7 0 254.3 0 218 0C181.7 0 145.3 0 109 0C72.7 0 36.3 0 18.2 0L0 0Z" fill="#38b8aa"></path><path d="M0 312L18.2 292.8C36.3 273.7 72.7 235.3 109 225.2C145.3 215 181.7 233 218 226.2C254.3 219.3 290.7 187.7 327 179.8C363.3 172 399.7 188 436 202.7C472.3 217.3 508.7 230.7 545.2 227.2C581.7 223.7 618.3 203.3 654.8 218C691.3 232.7 727.7 282.3 764 309.3C800.3 336.3 836.7 340.7 873 320.3C909.3 300 945.7 255 982 231.5C1018.3 208 1054.7 206 1091 218.5C1127.3 231 1163.7 258 1181.8 271.5L1200 285L1200 208L1181.8 200.2C1163.7 192.3 1127.3 176.7 1091 166.7C1054.7 156.7 1018.3 152.3 982 169.2C945.7 186 909.3 224 873 235.2C836.7 246.3 800.3 230.7 764 208.2C727.7 185.7 691.3 156.3 654.8 141.7C618.3 127 581.7 127 545.2 123.7C508.7 120.3 472.3 113.7 436 110.3C399.7 107 363.3 107 327 113.8C290.7 120.7 254.3 134.3 218 135.5C181.7 136.7 145.3 125.3 109 137.7C72.7 150 36.3 186 18.2 204L0 222Z" fill="#23a799"></path><path d="M0 433L18.2 415C36.3 397 72.7 361 109 353.2C145.3 345.3 181.7 365.7 218 357.8C254.3 350 290.7 314 327 291.5C363.3 269 399.7 260 436 267.8C472.3 275.7 508.7 300.3 545.2 297C581.7 293.7 618.3 262.3 654.8 284.8C691.3 307.3 727.7 383.7 764 415.2C800.3 446.7 836.7 433.3 873 415.3C909.3 397.3 945.7 374.7 982 354.3C1018.3 334 1054.7 316 1091 314.8C1127.3 313.7 1163.7 329.3 1181.8 337.2L1200 345L1200 283L1181.8 269.5C1163.7 256 1127.3 229 1091 216.5C1054.7 204 1018.3 206 982 229.5C945.7 253 909.3 298 873 318.3C836.7 338.7 800.3 334.3 764 307.3C727.7 280.3 691.3 230.7 654.8 216C618.3 201.3 581.7 221.7 545.2 225.2C508.7 228.7 472.3 215.3 436 200.7C399.7 186 363.3 170 327 177.8C290.7 185.7 254.3 217.3 218 224.2C181.7 231 145.3 213 109 223.2C72.7 233.3 36.3 271.7 18.2 290.8L0 310Z" fill="#009688"></path><path d="M0 561L18.2 566.7C36.3 572.3 72.7 583.7 109 577C145.3 570.3 181.7 545.7 218 535.5C254.3 525.3 290.7 529.7 327 528.5C363.3 527.3 399.7 520.7 436 524.2C472.3 527.7 508.7 541.3 545.2 541.3C581.7 541.3 618.3 527.7 654.8 531C691.3 534.3 727.7 554.7 764 564.8C800.3 575 836.7 575 873 575C909.3 575 945.7 575 982 561.5C1018.3 548 1054.7 521 1091 513.2C1127.3 505.3 1163.7 516.7 1181.8 522.3L1200 528L1200 343L1181.8 335.2C1163.7 327.3 1127.3 311.7 1091 312.8C1054.7 314 1018.3 332 982 352.3C945.7 372.7 909.3 395.3 873 413.3C836.7 431.3 800.3 444.7 764 413.2C727.7 381.7 691.3 305.3 654.8 282.8C618.3 260.3 581.7 291.7 545.2 295C508.7 298.3 472.3 273.7 436 265.8C399.7 258 363.3 267 327 289.5C290.7 312 254.3 348 218 355.8C181.7 363.7 145.3 343.3 109 351.2C72.7 359 36.3 395 18.2 413L0 431Z" fill="#008276"></path><path d="M0 676L18.2 676C36.3 676 72.7 676 109 676C145.3 676 181.7 676 218 676C254.3 676 290.7 676 327 676C363.3 676 399.7 676 436 676C472.3 676 508.7 676 545.2 676C581.7 676 618.3 676 654.8 676C691.3 676 727.7 676 764 676C800.3 676 836.7 676 873 676C909.3 676 945.7 676 982 676C1018.3 676 1054.7 676 1091 676C1127.3 676 1163.7 676 1181.8 676L1200 676L1200 526L1181.8 520.3C1163.7 514.7 1127.3 503.3 1091 511.2C1054.7 519 1018.3 546 982 559.5C945.7 573 909.3 573 873 573C836.7 573 800.3 573 764 562.8C727.7 552.7 691.3 532.3 654.8 529C618.3 525.7 581.7 539.3 545.2 539.3C508.7 539.3 472.3 525.7 436 522.2C399.7 518.7 363.3 525.3 327 526.5C290.7 527.7 254.3 523.3 218 533.5C181.7 543.7 145.3 568.3 109 575C72.7 581.7 36.3 570.3 18.2 564.7L0 559Z" fill="#006e64"></path></svg>