<svg id="visual" viewBox="0 0 1200 675" width="1200" height="675" xmlns="http://www.w3.org/2000/svg" xmlns:xlink="http://www.w3.org/1999/xlink" version="1.1"><path d="M0 129L18.2 117.8C36.3 106.7 72.7 84.3 109 72C145.3 59.7 181.7 57.3 218 68.5C254.3 79.7 290.7 104.3 327 108.8C363.3 113.3 399.7 97.7 436 86.5C472.3 75.3 508.7 68.7 545.2 64.2C581.7 59.7 618.3 57.3 654.8 67.5C691.3 77.7 727.7 100.3 764 109.3C800.3 118.3 836.7 113.7 873 101.2C909.3 88.7 945.7 68.3 982 61.7C1018.3 55 1054.7 62 1091 75.5C1127.3 89 1163.7 109 1181.8 119L1200 129L1200 0L1181.8 0C1163.7 0 1127.3 0 1091 0C1054.7 0 1018.3 0 982 0C945.7 0 909.3 0 873 0C836.7 0 800.3 0 764 0C727.7 0 691.3 0 654.8 0C618.3 0 581.7 0 545.2 0C508.7 0 472.3 0 436 0C399.7 0 363.3 0 327 0C290.7 0 254.3 0 218 0C181.7 0 145.3 0 109 0C72.7 0 36.3 0 18.2 0L0 0Z" fill="#ff8f67"></path><path d="M0 197L18.2 204.8C36.3 212.7 72.7 228.3 109 232.8C145.3 237.3 181.7 230.7 218 227.3C254.3 224 290.7 224 327 213.8C363.3 203.7 399.7 183.3 436 183.3C472.3 183.3 508.7 203.7 545.2 198C581.7 192.3 618.3 160.7 654.8 157.3C691.3 154 727.7 179 764 187C800.3 195 836.7 186 873 184.8C909.3 183.7 945.7 190.3 982 197C1018.3 203.7 1054.7 210.3 1091 218.2C1127.3 226 1163.7 235 1181.8 239.5L1200 244L1200 127L1181.8 117C1163.7 107 1127.3 87 1091 73.5C1054.7 60 1018.3 53 982 59.7C945.7 66.3 909.3 86.7 873 99.2C836.7 111.7 800.3 116.3 764 107.3C727.7 98.3 691.3 75.7 654.8 65.5C618.3 55.3 581.7 57.7 545.2 62.2C508.7 66.7 472.3 73.3 436 84.5C399.7 95.7 363.3 111.3 327 106.8C290.7 102.3 254.3 77.7 218 66.5C181.7 55.3 145.3 57.7 109 70C72.7 82.3 36.3 104.7 18.2 115.8L0 127Z" fill="#ff7546"></path><path d="M0 426L18.2 430.5C36.3 435 72.7 444 109 445.2C145.3 446.3 181.7 439.7 218 417.2C254.3 394.7 290.7 356.3 327 338.3C363.3 320.3 399.7 322.7 436 346.3C472.3 370 508.7 415 545.2 401.5C581.7 388 618.3 316 654.8 295.8C691.3 275.7 727.7 307.3 764 336.7C800.3 366 836.7 393 873 396.3C909.3 399.7 945.7 379.3 982 370.3C1018.3 361.3 1054.7 363.7 1091 364.8C1127.3 366 1163.7 366 1181.8 366L1200 366L1200 242L1181.8 237.5C1163.7 233 1127.3 224 1091 216.2C1054.7 208.3 1018.3 201.7 982 195C945.7 188.3 909.3 181.7 873 182.8C836.7 184 800.3 193 764 185C727.7 177 691.3 152 654.8 155.3C618.3 158.7 581.7 190.3 545.2 196C508.7 201.7 472.3 181.3 436 181.3C399.7 181.3 363.3 201.7 327 211.8C290.7 222 254.3 222 218 225.3C181.7 228.7 145.3 235.3 109 230.8C72.7 226.3 36.3 210.7 18.2 202.8L0 195Z" fill="#ff5722"></path><path d="M0 473L18.2 485.5C36.3 498 72.7 523 109 523C145.3 523 181.7 498 218 474.3C254.3 450.7 290.7 428.3 327 421.7C363.3 415 399.7 424 436 451C472.3 478 508.7 523 545.2 510.7C581.7 498.3 618.3 428.7 654.8 404C691.3 379.3 727.7 399.7 764 416.5C800.3 433.3 836.7 446.7 873 453.3C909.3 460 945.7 460 982 462.2C1018.3 464.3 1054.7 468.7 1091 462C1127.3 455.3 1163.7 437.7 1181.8 428.8L1200 420L1200 364L1181.8 364C1163.7 364 1127.3 364 1091 362.8C1054.7 361.7 1018.3 359.3 982 368.3C945.7 377.3 909.3 397.7 873 394.3C836.7 391 800.3 364 764 334.7C727.7 305.3 691.3 273.7 654.8 293.8C618.3 314 581.7 386 545.2 399.5C508.7 413 472.3 368 436 344.3C399.7 320.7 363.3 318.3 327 336.3C290.7 354.3 254.3 392.7 218 415.2C181.7 437.7 145.3 444.3 109 443.2C72.7 442 36.3 433 18.2 428.5L0 424Z" fill="#de4a1e"></path><path d="M0 676L18.2 676C36.3 676 72.7 676 109 676C145.3 676 181.7 676 218 676C254.3 676 290.7 676 327 676C363.3 676 399.7 676 436 676C472.3 676 508.7 676 545.2 676C581.7 676 618.3 676 654.8 676C691.3 676 727.7 676 764 676C800.3 676 836.7 676 873 676C909.3 676 945.7 676 982 676C1018.3 676 1054.7 676 1091 676C1127.3 676 1163.7 676 1181.8 676L1200 676L1200 418L1181.8 426.8C1163.7 435.7 1127.3 453.3 1091 460C1054.7 466.7 1018.3 462.3 982 460.2C945.7 458 909.3 458 873 451.3C836.7 444.7 800.3 431.3 764 414.5C727.7 397.7 691.3 377.3 654.8 402C618.3 426.7 581.7 496.3 545.2 508.7C508.7 521 472.3 476 436 449C399.7 422 363.3 413 327 419.7C290.7 426.3 254.3 448.7 218 472.3C181.7 496 145.3 521 109 521C72.7 521 36.3 496 18.2 483.5L0 471Z" fill="#be3d1a"></path></svg>