<svg id="visual" viewBox="0 0 1200 675" width="1200" height="675" xmlns="http://www.w3.org/2000/svg" xmlns:xlink="http://www.w3.org/1999/xlink" version="1.1"><path d="M0 264L18.2 255C36.3 246 72.7 228 109 231.5C145.3 235 181.7 260 218 270.2C254.3 280.3 290.7 275.7 327 272.2C363.3 268.7 399.7 266.3 436 255.2C472.3 244 508.7 224 545.2 207.2C581.7 190.3 618.3 176.7 654.8 185.7C691.3 194.7 727.7 226.3 764 236.5C800.3 246.7 836.7 235.3 873 219.5C909.3 203.7 945.7 183.3 982 174.3C1018.3 165.3 1054.7 167.7 1091 186.8C1127.3 206 1163.7 242 1181.8 260L1200 278L1200 0L1181.8 0C1163.7 0 1127.3 0 1091 0C1054.7 0 1018.3 0 982 0C945.7 0 909.3 0 873 0C836.7 0 800.3 0 764 0C727.7 0 691.3 0 654.8 0C618.3 0 581.7 0 545.2 0C508.7 0 472.3 0 436 0C399.7 0 363.3 0 327 0C290.7 0 254.3 0 218 0C181.7 0 145.3 0 109 0C72.7 0 36.3 0 18.2 0L0 0Z" fill="#ff7fde"></path><path d="M0 406L18.2 397C36.3 388 72.7 370 109 368.8C145.3 367.7 181.7 383.3 218 402.5C254.3 421.7 290.7 444.3 327 444.3C363.3 444.3 399.7 421.7 436 407C472.3 392.3 508.7 385.7 545.2 382.3C581.7 379 618.3 379 654.8 379C691.3 379 727.7 379 764 379C800.3 379 836.7 379 873 379C909.3 379 945.7 379 982 374.5C1018.3 370 1054.7 361 1091 368.8C1127.3 376.7 1163.7 401.3 1181.8 413.7L1200 426L1200 276L1181.8 258C1163.7 240 1127.3 204 1091 184.8C1054.7 165.7 1018.3 163.3 982 172.3C945.7 181.3 909.3 201.7 873 217.5C836.7 233.3 800.3 244.7 764 234.5C727.7 224.3 691.3 192.7 654.8 183.7C618.3 174.7 581.7 188.3 545.2 205.2C508.7 222 472.3 242 436 253.2C399.7 264.3 363.3 266.7 327 270.2C290.7 273.7 254.3 278.3 218 268.2C181.7 258 145.3 233 109 229.5C72.7 226 36.3 244 18.2 253L0 262Z" fill="#ff5bd5"></path><path d="M0 480L18.2 468.8C36.3 457.7 72.7 435.3 109 434.2C145.3 433 181.7 453 218 475.5C254.3 498 290.7 523 327 525.3C363.3 527.7 399.7 507.3 436 494.8C472.3 482.3 508.7 477.7 545.2 468.7C581.7 459.7 618.3 446.3 654.8 442C691.3 437.7 727.7 442.3 764 442.3C800.3 442.3 836.7 437.7 873 436.5C909.3 435.3 945.7 437.7 982 443.3C1018.3 449 1054.7 458 1091 471.5C1127.3 485 1163.7 503 1181.8 512L1200 521L1200 424L1181.8 411.7C1163.7 399.3 1127.3 374.7 1091 366.8C1054.7 359 1018.3 368 982 372.5C945.7 377 909.3 377 873 377C836.7 377 800.3 377 764 377C727.7 377 691.3 377 654.8 377C618.3 377 581.7 377 545.2 380.3C508.7 383.7 472.3 390.3 436 405C399.7 419.7 363.3 442.3 327 442.3C290.7 442.3 254.3 419.7 218 400.5C181.7 381.3 145.3 365.7 109 366.8C72.7 368 36.3 386 18.2 395L0 404Z" fill="#ff22ca"></path><path d="M0 528L18.2 528C36.3 528 72.7 528 109 529C145.3 530 181.7 532 218 545.5C254.3 559 290.7 584 327 596.5C363.3 609 399.7 609 436 603.3C472.3 597.7 508.7 586.3 545.2 580.7C581.7 575 618.3 575 654.8 575C691.3 575 727.7 575 764 572.7C800.3 570.3 836.7 565.7 873 562.3C909.3 559 945.7 557 982 558.2C1018.3 559.3 1054.7 563.7 1091 574.8C1127.3 586 1163.7 604 1181.8 613L1200 622L1200 519L1181.8 510C1163.7 501 1127.3 483 1091 469.5C1054.7 456 1018.3 447 982 441.3C945.7 435.7 909.3 433.3 873 434.5C836.7 435.7 800.3 440.3 764 440.3C727.7 440.3 691.3 435.7 654.8 440C618.3 444.3 581.7 457.7 545.2 466.7C508.7 475.7 472.3 480.3 436 492.8C399.7 505.3 363.3 525.7 327 523.3C290.7 521 254.3 496 218 473.5C181.7 451 145.3 431 109 432.2C72.7 433.3 36.3 455.7 18.2 466.8L0 478Z" fill="#de1bb0"></path><path d="M0 676L18.2 676C36.3 676 72.7 676 109 676C145.3 676 181.7 676 218 676C254.3 676 290.7 676 327 676C363.3 676 399.7 676 436 676C472.3 676 508.7 676 545.2 676C581.7 676 618.3 676 654.8 676C691.3 676 727.7 676 764 676C800.3 676 836.7 676 873 676C909.3 676 945.7 676 982 676C1018.3 676 1054.7 676 1091 676C1127.3 676 1163.7 676 1181.8 676L1200 676L1200 620L1181.8 611C1163.7 602 1127.3 584 1091 572.8C1054.7 561.7 1018.3 557.3 982 556.2C945.7 555 909.3 557 873 560.3C836.7 563.7 800.3 568.3 764 570.7C727.7 573 691.3 573 654.8 573C618.3 573 581.7 573 545.2 578.7C508.7 584.3 472.3 595.7 436 601.3C399.7 607 363.3 607 327 594.5C290.7 582 254.3 557 218 543.5C181.7 530 145.3 528 109 527C72.7 526 36.3 526 18.2 526L0 526Z" fill="#be1496"></path></svg>