<svg id="visual" viewBox="0 0 1200 675" width="1200" height="675" xmlns="http://www.w3.org/2000/svg" xmlns:xlink="http://www.w3.org/1999/xlink" version="1.1"><path d="M0 129L18.2 130.2C36.3 131.3 72.7 133.7 109 147.2C145.3 160.7 181.7 185.3 218 193.2C254.3 201 290.7 192 327 189.8C363.3 187.7 399.7 192.3 436 189C472.3 185.7 508.7 174.3 545.2 164.2C581.7 154 618.3 145 654.8 148.3C691.3 151.7 727.7 167.3 764 174.2C800.3 181 836.7 179 873 190.3C909.3 201.7 945.7 226.3 982 220.7C1018.3 215 1054.7 179 1091 154.2C1127.3 129.3 1163.7 115.7 1181.8 108.8L1200 102L1200 0L1181.8 0C1163.7 0 1127.3 0 1091 0C1054.7 0 1018.3 0 982 0C945.7 0 909.3 0 873 0C836.7 0 800.3 0 764 0C727.7 0 691.3 0 654.8 0C618.3 0 581.7 0 545.2 0C508.7 0 472.3 0 436 0C399.7 0 363.3 0 327 0C290.7 0 254.3 0 218 0C181.7 0 145.3 0 109 0C72.7 0 36.3 0 18.2 0L0 0Z" fill="#ffd971"></path><path d="M0 210L18.2 219C36.3 228 72.7 246 109 256.2C145.3 266.3 181.7 268.7 218 285.7C254.3 302.7 290.7 334.3 327 352.3C363.3 370.3 399.7 374.7 436 364.5C472.3 354.3 508.7 329.7 545.2 310.5C581.7 291.3 618.3 277.7 654.8 279.8C691.3 282 727.7 300 764 304.5C800.3 309 836.7 300 873 304.5C909.3 309 945.7 327 982 329.3C1018.3 331.7 1054.7 318.3 1091 299.3C1127.3 280.3 1163.7 255.7 1181.8 243.3L1200 231L1200 100L1181.8 106.8C1163.7 113.7 1127.3 127.3 1091 152.2C1054.7 177 1018.3 213 982 218.7C945.7 224.3 909.3 199.7 873 188.3C836.7 177 800.3 179 764 172.2C727.7 165.3 691.3 149.7 654.8 146.3C618.3 143 581.7 152 545.2 162.2C508.7 172.3 472.3 183.7 436 187C399.7 190.3 363.3 185.7 327 187.8C290.7 190 254.3 199 218 191.2C181.7 183.3 145.3 158.7 109 145.2C72.7 131.7 36.3 129.3 18.2 128.2L0 127Z" fill="#ffd04f"></path><path d="M0 278L18.2 282.5C36.3 287 72.7 296 109 307.2C145.3 318.3 181.7 331.7 218 353C254.3 374.3 290.7 403.7 327 421.7C363.3 439.7 399.7 446.3 436 440.7C472.3 435 508.7 417 545.2 408C581.7 399 618.3 399 654.8 405.8C691.3 412.7 727.7 426.3 764 432C800.3 437.7 836.7 435.3 873 428.5C909.3 421.7 945.7 410.3 982 402.5C1018.3 394.7 1054.7 390.3 1091 382.5C1127.3 374.7 1163.7 363.3 1181.8 357.7L1200 352L1200 229L1181.8 241.3C1163.7 253.7 1127.3 278.3 1091 297.3C1054.7 316.3 1018.3 329.7 982 327.3C945.7 325 909.3 307 873 302.5C836.7 298 800.3 307 764 302.5C727.7 298 691.3 280 654.8 277.8C618.3 275.7 581.7 289.3 545.2 308.5C508.7 327.7 472.3 352.3 436 362.5C399.7 372.7 363.3 368.3 327 350.3C290.7 332.3 254.3 300.7 218 283.7C181.7 266.7 145.3 264.3 109 254.2C72.7 244 36.3 226 18.2 217L0 208Z" fill="#ffc622"></path><path d="M0 318L18.2 335C36.3 352 72.7 386 109 407.5C145.3 429 181.7 438 218 456C254.3 474 290.7 501 327 508.8C363.3 516.7 399.7 505.3 436 503C472.3 500.7 508.7 507.3 545.2 506.2C581.7 505 618.3 496 654.8 494.8C691.3 493.7 727.7 500.3 764 501.5C800.3 502.7 836.7 498.3 873 499.5C909.3 500.7 945.7 507.3 982 507.3C1018.3 507.3 1054.7 500.7 1091 488.3C1127.3 476 1163.7 458 1181.8 449L1200 440L1200 350L1181.8 355.7C1163.7 361.3 1127.3 372.7 1091 380.5C1054.7 388.3 1018.3 392.7 982 400.5C945.7 408.3 909.3 419.7 873 426.5C836.7 433.3 800.3 435.7 764 430C727.7 424.3 691.3 410.7 654.8 403.8C618.3 397 581.7 397 545.2 406C508.7 415 472.3 433 436 438.7C399.7 444.3 363.3 437.7 327 419.7C290.7 401.7 254.3 372.3 218 351C181.7 329.7 145.3 316.3 109 305.2C72.7 294 36.3 285 18.2 280.5L0 276Z" fill="#ddac1b"></path><path d="M0 676L18.2 676C36.3 676 72.7 676 109 676C145.3 676 181.7 676 218 676C254.3 676 290.7 676 327 676C363.3 676 399.7 676 436 676C472.3 676 508.7 676 545.2 676C581.7 676 618.3 676 654.8 676C691.3 676 727.7 676 764 676C800.3 676 836.7 676 873 676C909.3 676 945.7 676 982 676C1018.3 676 1054.7 676 1091 676C1127.3 676 1163.7 676 1181.8 676L1200 676L1200 438L1181.8 447C1163.7 456 1127.3 474 1091 486.3C1054.7 498.7 1018.3 505.3 982 505.3C945.7 505.3 909.3 498.7 873 497.5C836.7 496.3 800.3 500.7 764 499.5C727.7 498.3 691.3 491.7 654.8 492.8C618.3 494 581.7 503 545.2 504.2C508.7 505.3 472.3 498.7 436 501C399.7 503.3 363.3 514.7 327 506.8C290.7 499 254.3 472 218 454C181.7 436 145.3 427 109 405.5C72.7 384 36.3 350 18.2 333L0 316Z" fill="#bd9315"></path></svg>