<svg xmlns="http://www.w3.org/2000/svg" width="512" height="512" viewBox="0 0 512 512"><path fill="#d31837" d="M256 440l-23-23-47-47-68-68c-15.71-15.7-41.95-40.15-53.31-58-20.29-31.91-21.96-75.01-5.91-109 5.46-11.56 13.21-22.78 22.39-31.72C118.34 67.12 178.5 61.73 222 89.7c10.28 6.61 29.09 23.81 33.19 35.3.95 2.67.8 5.22.81 8v307z"/><path fill="#ff5722" d="M320.6 113.17l27.54-48.77c2.15-3.7 3.95-7.11 7.81-9.34 9.74-5.64 22.24.48 23.93 11.55.84 5.57-1.39 9.21-4.03 13.79l-25 43.3c-2.6 4.4-4.96 7.48-10.1 9.06-12.11 3.73-22.91-6.83-20.15-19.59zm62.77 51.43l48.23-28.46c3.7-2.13 6.97-4.18 11.43-4.19 11.26-.01 19.02 11.54 14.95 21.97-2.05 5.25-5.81 7.28-10.38 9.93l-43.3 25c-4.46 2.5-8.04 4-13.28 2.8-12.36-2.83-16.43-17.37-7.65-27.05zM412 240.53l56-.53c4.28.01 8.13-.14 12 2.09 9.75 5.62 10.7 19.5 1.96 26.49-4.4 3.52-8.67 3.41-13.96 3.42h-50c-5.11-.07-8.96-.57-12.89-4.22-9.29-8.63-5.55-23.26 6.89-27.25zm-13.17 80.07l48.77 27.54c3.7 2.15 7.11 3.95 9.34 7.81 5.64 9.74-.48 22.24-11.55 23.93-5.57.84-9.21-1.39-13.79-4.03l-43.3-25c-4.4-2.6-7.48-4.96-9.06-10.1-3.73-12.11 6.83-22.91 19.59-20.15zm-51.43 62.77l28.46 48.23c2.13 3.7 4.18 6.97 4.19 11.43.01 11.26-11.54 19.02-21.97 14.95-5.25-2.05-7.28-5.81-9.93-10.38l-25-43.3c-2.5-4.46-4-8.04-2.8-13.28 2.83-12.36 17.37-16.43 27.05-7.65zM256 128c18.16 0 37.61 3.7 54 11.76 22.69 11.15 38.19 22.93 52.48 44.24 33.53 49.99 27.37 118.71-14.52 162-11.47 11.85-26.84 21.65-41.96 28.15-15.68 6.73-32.98 9.85-50 9.85V128z"/></svg>