<svg xmlns="http://www.w3.org/2000/svg" width="192" height="192" viewBox="0 0 192 192"><path fill="#d31837" d="M96 165l-8.62-8.62-17.63-17.63-25.5-25.5c-5.89-5.89-15.73-15.05-19.99-21.75-7.61-11.97-8.24-28.13-2.22-40.88 2.05-4.33 4.95-8.54 8.4-11.89 13.94-13.56 36.5-15.58 52.81-5.09 3.85 2.47 10.91 8.92 12.44 13.24.36 1 .31 1.95.31 3V165z"/><path fill="#ff5722" d="M120.23 42.44l10.32-18.29c.81-1.39 1.48-2.67 2.93-3.5 3.66-2.12 8.34.18 8.97 4.33.32 2.09-.51 3.45-1.5 5.17l-9.38 16.24c-.98 1.65-1.86 2.8-3.79 3.39-4.54 1.4-8.59-2.56-7.55-7.34zm23.53 19.29l18.09-10.68c1.39-.8 2.61-1.57 4.29-1.57 4.22 0 7.13 4.33 5.6 8.24-.77 1.97-2.17 2.73-3.89 3.73l-16.24 9.37c-1.67.94-3.01 1.5-4.98 1.05-4.63-1.06-6.16-6.52-2.87-10.14zM154.5 90.2l21-.2c1.6 0 3.05-.05 4.5.78 3.66 2.11 4.01 7.32.73 9.94-1.65 1.32-3.25 1.28-5.23 1.28h-18.75c-1.92-.02-3.36-.21-4.84-1.58-3.48-3.24-2.07-8.72 2.59-10.22zm-4.94 30.03l18.29 10.32c1.39.81 2.67 1.48 3.5 2.93 2.12 3.66-.18 8.34-4.33 8.97-2.09.32-3.45-.51-5.17-1.5l-16.24-9.38c-1.65-.98-2.8-1.86-3.39-3.79-1.4-4.54 2.56-8.59 7.34-7.55zm-19.29 23.53l10.68 18.09c.8 1.39 1.57 2.61 1.57 4.29 0 4.22-4.33 7.13-8.24 5.6-1.97-.77-2.73-2.17-3.73-3.89l-9.37-16.24c-.94-1.67-1.5-3.01-1.05-4.98 1.06-4.63 6.52-6.16 10.14-2.87zM96 48c6.81 0 14.11 1.39 20.25 4.41 8.51 4.18 14.32 8.6 19.68 16.59 12.58 18.74 10.26 44.52-5.44 60.75-4.3 4.44-10.07 8.12-15.74 10.56-5.88 2.52-12.37 3.69-18.75 3.69V48z"/></svg>