<svg xmlns="http://www.w3.org/2000/svg" width="192" height="192" viewBox="0 0 192 192"><style>@media(prefers-color-scheme: dark){.a{fill:#d31837}.b{fill:#ff5722}}</style><path class="a" fill="#ff5722" d="M 95.94,155.62 C 92.84,154.08 89.05,150.25 86.25,147.85 86.25,147.85 69.00,132.81 69.00,132.81 69.00,132.81 48.00,114.42 48.00,114.42 42.56,109.74 36.32,104.69 31.96,99.00 27.12,92.67 24.04,84.12 24.00,76.12 23.97,69.31 24.99,63.54 28.03,57.38 30.27,52.83 33.29,48.82 37.12,45.48 50.17,34.13 69.33,32.92 84.00,41.86 87.84,44.19 94.60,49.95 95.94,54.38 96.03,55.18 96.00,56.17 95.94,57.00 95.94,57.00 95.94,155.62 95.94,155.62 Z"/><path class="b" fill="#d31837" d="M 96.00,54.00 C 102.06,54.00 107.69,55.19 113.25,57.59 118.30,59.77 122.64,62.82 126.44,66.78 143.12,84.18 141.56,113.04 123.00,128.50 115.64,134.64 105.53,138.00 96.00,138.00 96.00,138.00 96.00,54.00 96.00,54.00 Z"/><path class="b" fill="#d31837" d="M 127.27,138.57 C 127.27,138.57 136.82,154.71 136.82,154.71 140.39,161.07 134.71,165.48 130.22,164.10 127.97,163.41 127.15,161.94 126.05,160.05 126.05,160.05 119.68,149.01 119.68,149.01 118.73,147.38 117.14,145.06 117.00,143.20 116.61,138.10 122.71,134.43 127.27,138.57 Z"/><path class="b" fill="#d31837" d="M 144.37,117.23 C 144.37,117.23 160.70,126.43 160.70,126.43 166.98,130.16 164.26,136.82 159.68,137.87 157.39,138.39 155.95,137.53 154.05,136.45 154.05,136.45 143.01,130.07 143.01,130.07 141.38,129.13 138.84,127.91 137.79,126.37 134.90,122.16 138.35,115.92 144.37,117.23 Z"/><path class="b" fill="#d31837" d="M 148.50,90.20 C 148.50,90.20 167.25,90.00 167.25,90.00 174.55,90.09 175.53,97.22 172.09,100.42 170.36,102.02 168.68,102.00 166.50,102.00 166.50,102.00 153.75,102.00 153.75,102.00 151.86,102.00 149.06,102.22 147.38,101.41 142.77,99.20 142.64,92.08 148.50,90.20 Z"/><path class="b" fill="#d31837" d="M 138.57,64.73 C 138.57,64.73 154.71,55.18 154.71,55.18 161.07,51.61 165.48,57.29 164.10,61.78 163.41,64.03 161.94,64.85 160.05,65.95 160.05,65.95 149.01,72.32 149.01,72.32 147.38,73.27 145.06,74.86 143.20,75.00 138.10,75.39 134.43,69.29 138.57,64.73 Z"/><path class="b" fill="#d31837" d="M 117.23,47.63 C 117.23,47.63 126.43,31.30 126.43,31.30 130.16,25.02 136.82,27.74 137.87,32.32 138.39,34.61 137.53,36.05 136.45,37.95 136.45,37.95 130.07,48.99 130.07,48.99 129.13,50.62 127.91,53.16 126.37,54.21 122.16,57.10 115.92,53.65 117.23,47.63 Z"/></svg>