<?xml version="1.0" standalone="no"?>
<!DOCTYPE svg PUBLIC "-//W3C//DTD SVG 20010904//EN"
 "http://www.w3.org/TR/2001/REC-SVG-20010904/DTD/svg10.dtd">
<svg version="1.0" xmlns="http://www.w3.org/2000/svg"
 width="516.000000pt" height="516.000000pt" viewBox="0 0 516.000000 516.000000"
 preserveAspectRatio="xMidYMid meet">
<metadata>
Created by potrace 1.11, written by Peter Selinger 2001-2013
</metadata>
<g transform="translate(0.000000,516.000000) scale(0.100000,-0.100000)"
fill="#000000" stroke="none">
<path d="M1965 4957 c-7 -18 -17 -46 -21 -61 -4 -19 -11 -25 -22 -21 -12 4
-13 3 -3 -9 10 -11 9 -21 -3 -44 -8 -16 -12 -32 -9 -36 4 -3 1 -6 -5 -6 -6 0
-9 -9 -7 -21 2 -11 -1 -32 -6 -47 -6 -15 -13 -40 -16 -57 -3 -16 -7 -37 -8
-45 -2 -8 -4 -23 -4 -33 -1 -10 -6 -15 -11 -12 -6 4 -7 11 -4 17 4 7 2 8 -5 4
-9 -6 -9 -11 1 -23 7 -9 11 -30 9 -47 -5 -40 -7 -74 -9 -109 -2 -20 -6 -26
-14 -21 -10 6 -10 4 -2 -7 15 -21 12 -115 -4 -111 -8 1 -11 -2 -7 -8 3 -6 11
-8 16 -5 5 4 8 -17 7 -47 -1 -29 1 -69 5 -88 8 -46 30 -219 30 -237 0 -7 4
-13 8 -13 7 0 12 -16 25 -94 5 -28 4 -37 -5 -32 -6 4 -8 12 -5 18 4 7 2 8 -5
4 -6 -4 -9 -11 -6 -16 9 -14 -25 -20 -115 -19 -47 1 -92 -1 -100 -5 -20 -7
-71 -3 -89 8 -10 6 -12 5 -7 -2 5 -8 -1 -12 -14 -12 -14 0 -19 4 -14 13 5 8 2
8 -9 -2 -9 -7 -17 -11 -17 -8 0 3 -14 1 -32 -4 -23 -6 -34 -5 -40 4 -6 9 -8 9
-8 0 0 -7 -11 -13 -24 -13 -13 0 -27 6 -29 13 -4 10 -6 10 -6 0 -1 -7 -12 -13
-26 -13 -14 0 -25 6 -25 13 0 9 -2 9 -8 1 -9 -15 -63 -21 -81 -10 -10 6 -12 5
-7 -2 10 -16 -36 -16 -53 1 -11 10 -12 9 -7 -1 6 -10 -3 -12 -41 -10 -33 2
-47 7 -45 16 1 8 -2 11 -8 7 -6 -3 -8 -10 -5 -15 7 -12 -39 -18 -172 -23 -74
-3 -116 -1 -124 7 -9 8 -10 8 -6 0 5 -8 -15 -11 -68 -10 -41 1 -75 -2 -75 -6
0 -5 -24 -8 -52 -6 -38 2 -52 7 -50 16 1 8 -2 11 -8 7 -6 -3 -8 -11 -5 -16 4
-5 -19 -8 -52 -8 -32 1 -75 1 -97 0 -38 -1 -38 -1 -32 -36 6 -30 5 -34 -11
-29 -15 5 -15 4 -3 -4 8 -6 17 -9 22 -6 8 5 34 -36 30 -48 -1 -5 4 -8 12 -8 8
0 18 -5 22 -12 4 -6 3 -8 -4 -4 -12 7 -10 -20 3 -31 4 -4 5 -2 1 5 -4 6 -3 12
2 12 10 0 26 -29 24 -42 -1 -5 3 -8 9 -8 6 0 9 -6 6 -14 -3 -8 1 -13 11 -12 9
0 16 -5 14 -12 -1 -8 2 -11 7 -7 10 5 37 -33 33 -47 -1 -4 7 -10 18 -13 11 -4
20 -12 20 -19 0 -7 14 -22 30 -34 17 -13 30 -29 30 -37 0 -8 6 -14 13 -13 6 2
11 -3 9 -10 -1 -8 2 -11 7 -8 11 7 33 -19 23 -28 -4 -4 -1 -6 7 -4 7 1 16 -3
19 -11 3 -9 0 -11 -9 -6 -8 5 -11 4 -6 -1 5 -5 13 -10 18 -10 5 -1 12 -2 17
-3 16 -3 61 -49 54 -56 -4 -5 -2 -5 4 -2 15 9 66 -32 58 -45 -5 -7 -2 -8 5 -4
14 9 53 -22 45 -35 -3 -5 3 -6 12 -2 13 5 16 2 11 -9 -4 -12 -1 -14 14 -11 10
3 19 0 19 -6 0 -6 7 -11 16 -11 9 0 12 -5 8 -12 -5 -8 -2 -9 9 -5 10 4 20 0
25 -9 5 -9 12 -15 16 -14 9 2 99 -41 106 -51 3 -4 24 -12 47 -19 23 -7 51 -21
63 -32 11 -10 22 -18 25 -18 3 0 7 0 10 0 3 0 -7 -18 -21 -40 -15 -22 -31 -40
-35 -40 -5 0 -9 -6 -9 -14 0 -7 -11 -25 -25 -40 -14 -15 -25 -31 -25 -35 0 -5
-7 -12 -16 -15 -8 -3 -13 -10 -10 -14 3 -5 -6 -20 -20 -35 -13 -14 -24 -29
-24 -32 0 -14 -42 -59 -56 -61 -9 -1 -19 -6 -22 -10 -4 -4 1 -4 11 -1 22 8 22
2 -4 -33 -14 -18 -28 -26 -38 -23 -14 4 -14 3 -1 -6 13 -10 12 -14 -7 -30 -12
-10 -20 -21 -17 -23 2 -3 -8 -19 -24 -36 -16 -17 -27 -34 -24 -37 3 -3 0 -5
-6 -5 -7 0 -12 -6 -12 -13 0 -19 -35 -49 -45 -40 -4 5 -5 2 -1 -4 8 -14 -37
-87 -47 -76 -4 3 -7 -1 -7 -10 0 -10 -8 -17 -17 -18 -11 0 -13 -3 -5 -6 9 -3
7 -13 -9 -34 -11 -16 -25 -27 -30 -24 -5 4 -6 0 -3 -8 3 -8 -3 -21 -14 -28
-11 -8 -21 -18 -23 -24 -2 -5 -7 -9 -11 -8 -4 2 -5 -3 -2 -11 3 -8 0 -17 -7
-22 -8 -5 -10 -3 -4 6 5 8 4 11 -3 6 -6 -4 -9 -13 -6 -20 3 -8 -5 -22 -18 -33
-13 -10 -24 -25 -26 -33 -2 -8 -11 -22 -22 -31 -11 -9 -16 -19 -13 -23 4 -3 2
-6 -4 -6 -5 0 -15 -12 -21 -26 -7 -14 -16 -23 -21 -20 -5 3 -8 -2 -7 -11 0
-10 -4 -18 -11 -18 -6 0 -15 -4 -20 -9 -5 -5 -3 -6 5 -2 6 4 12 2 12 -4 0 -6
-7 -13 -15 -16 -8 -4 -15 -12 -15 -19 0 -6 -11 -24 -25 -39 -14 -15 -25 -31
-25 -37 0 -5 -3 -9 -8 -9 -4 0 -12 -10 -17 -22 -6 -13 -17 -22 -24 -20 -7 1
-10 -2 -7 -7 4 -5 -1 -14 -10 -19 -23 -13 -13 -46 14 -50 12 -2 20 -8 16 -13
-3 -6 3 -5 13 1 27 17 209 1 205 -18 -1 -8 2 -11 8 -7 6 3 8 11 5 16 -9 14 39
11 54 -4 11 -9 13 -9 7 1 -5 9 6 12 43 12 28 0 52 1 54 1 11 8 107 14 107 7 0
-4 5 -8 11 -8 5 0 7 5 3 11 -3 6 1 10 12 9 11 -1 21 -1 24 0 3 1 37 8 75 15
39 6 79 16 89 20 13 6 17 5 12 -3 -3 -6 -1 -14 5 -18 7 -4 9 -3 6 3 -9 14 19
37 33 28 5 -3 10 -2 10 3 0 12 80 33 93 25 6 -3 7 -1 3 5 -3 6 7 13 26 18 18
4 40 9 48 12 8 2 23 3 33 3 9 0 15 4 12 10 -4 5 1 9 10 9 9 0 23 7 32 15 16
16 38 11 27 -7 -4 -7 -2 -8 5 -4 6 4 9 11 6 16 -7 11 34 40 57 40 10 0 18 5
18 11 0 5 5 7 10 4 6 -3 10 -1 10 5 0 6 5 8 10 5 6 -4 8 -10 5 -15 -3 -4 -1
-10 5 -12 5 -1 11 -12 13 -23 2 -11 7 -27 11 -36 4 -9 8 -33 9 -52 1 -19 6
-32 11 -29 5 3 7 -2 3 -11 -3 -10 -3 -17 2 -17 8 0 17 -34 24 -85 1 -11 5 -22
9 -25 4 -3 10 -21 13 -39 3 -19 10 -42 15 -52 15 -27 12 -39 -7 -33 -10 2 -8
-1 5 -7 12 -7 22 -18 22 -26 0 -8 -5 -11 -12 -8 -7 4 -5 0 5 -8 10 -9 18 -18
18 -21 0 -3 1 -11 3 -18 2 -7 6 -22 9 -33 3 -11 8 -29 12 -40 5 -16 5 -17 -4
-5 -6 8 -11 11 -11 6 0 -5 6 -17 14 -25 15 -17 58 -163 46 -156 -4 3 1 -12 11
-32 10 -20 16 -40 13 -45 -3 -5 -2 -14 4 -21 16 -22 23 -49 9 -41 -9 6 -9 5 0
-8 7 -8 10 -18 6 -21 -3 -4 -2 -7 4 -7 11 0 37 -91 35 -122 0 -10 4 -18 10
-18 6 0 8 -9 5 -20 -3 -11 -1 -20 3 -20 5 0 11 -15 15 -33 3 -17 10 -43 16
-57 5 -14 10 -34 12 -45 2 -11 7 -27 10 -35 17 -42 47 -170 47 -198 0 -18 5
-32 10 -32 6 0 10 -7 10 -16 0 -12 6 -9 21 10 11 14 25 24 30 21 5 -4 6 0 4 7
-6 14 43 65 58 60 4 -1 7 4 7 11 0 18 56 68 66 59 4 -4 4 -1 0 6 -9 16 12 44
27 35 5 -3 7 -1 4 4 -4 6 4 22 18 34 13 13 25 29 25 35 0 16 35 45 45 37 4 -5
5 -2 1 5 -4 6 -3 12 2 12 5 0 9 6 9 14 0 23 44 87 55 80 7 -4 8 -2 4 4 -9 15
18 55 29 44 5 -4 5 -2 2 4 -7 13 14 64 26 64 5 0 5 5 2 10 -3 6 -1 10 5 10 6
0 9 4 6 9 -8 12 19 33 30 23 4 -4 2 1 -5 11 -10 12 -10 17 -2 17 7 0 10 4 7 9
-3 4 4 25 14 47 11 21 20 44 20 52 0 7 5 10 12 6 7 -4 8 -3 4 4 -8 14 14 92
26 92 5 0 7 4 4 9 -3 5 1 28 9 51 8 23 15 54 15 68 0 13 8 31 18 39 9 8 11 12
4 8 -9 -5 -11 0 -7 17 4 13 8 33 10 44 5 30 6 30 14 10 4 -11 15 -20 24 -22
10 -1 14 2 10 9 -4 7 0 8 11 4 10 -4 19 -7 22 -7 2 0 1 -8 -2 -18 -4 -12 -3
-13 3 -4 13 18 93 -13 93 -37 0 -14 2 -14 10 -1 6 9 13 11 18 5 4 -5 14 -11
22 -13 8 -2 35 -13 60 -24 48 -22 54 -25 71 -27 5 0 7 -5 4 -11 -3 -6 1 -7 9
-4 9 3 16 1 16 -5 0 -6 7 -8 15 -5 8 4 15 2 15 -3 0 -5 6 -10 13 -10 26 0 87
-35 80 -47 -4 -6 1 -5 10 3 11 9 17 10 17 2 0 -6 9 -11 21 -11 11 0 18 -4 15
-9 -4 -5 4 -7 16 -3 14 3 19 1 14 -6 -4 -8 -2 -10 7 -6 8 3 21 -1 28 -9 8 -7
19 -12 25 -10 7 2 20 -4 29 -13 10 -10 25 -19 34 -19 28 -3 61 -16 61 -25 0
-5 7 -7 15 -4 8 4 15 1 15 -6 0 -6 5 -8 10 -5 5 3 10 1 10 -4 0 -6 3 -10 8
-10 4 1 10 0 15 -1 4 -1 10 -3 15 -4 34 -8 52 -20 52 -34 0 -13 2 -14 9 -4 6
10 13 11 34 1 15 -7 25 -15 23 -18 -2 -3 8 -7 22 -8 15 0 28 -6 30 -12 2 -5
10 -7 18 -4 8 3 14 0 14 -7 0 -6 5 -8 10 -5 6 3 10 1 10 -5 0 -6 5 -8 12 -4 8
5 9 2 4 -11 -6 -15 -4 -16 10 -5 12 11 17 11 23 1 5 -7 11 -12 15 -11 10 2 76
-23 76 -30 0 -3 10 -6 22 -7 11 -1 25 -8 29 -15 5 -7 9 -9 9 -4 0 5 6 4 13 -1
6 -6 29 -16 50 -22 23 -8 37 -19 37 -29 0 -13 2 -14 9 -3 6 10 13 11 29 2 11
-6 29 -11 40 -11 17 0 19 8 18 70 -1 38 -4 70 -8 70 -5 0 -8 7 -8 16 0 8 4 13
9 9 5 -3 4 7 -4 22 -7 16 -16 48 -19 73 -8 59 -11 70 -24 102 -6 15 -12 51
-14 81 -2 30 -6 53 -10 51 -4 -3 -13 15 -20 38 -7 24 -18 49 -25 56 -7 7 -13
17 -13 22 0 11 -54 133 -77 174 -12 22 -13 27 -2 22 8 -4 4 1 -8 11 -12 10
-44 56 -72 103 -28 47 -60 95 -73 108 -12 12 -18 22 -13 22 6 0 2 5 -8 11 -9
6 -15 15 -11 20 3 5 1 8 -4 7 -16 -5 -64 60 -51 68 8 4 9 3 5 -4 -4 -7 -2 -12
3 -12 6 0 11 7 11 16 0 11 6 15 19 11 14 -3 18 -1 14 9 -4 10 0 12 13 7 10 -4
15 -2 11 4 -3 5 17 21 46 34 29 13 55 28 58 33 4 5 14 6 23 3 9 -4 15 -1 13 6
-1 7 6 11 15 11 10 -1 16 2 13 6 -6 9 70 51 79 43 3 -3 6 -1 6 5 0 7 6 12 14
12 7 0 19 7 26 15 7 8 16 13 20 10 5 -3 11 -1 15 5 8 13 87 55 98 52 4 -1 7 2
7 7 0 5 19 17 43 27 23 10 46 20 51 22 5 3 5 -1 1 -8 -5 -9 -4 -11 4 -6 6 4 9
11 6 16 -3 5 8 15 25 24 20 9 28 10 24 3 -3 -7 2 -3 10 7 9 11 16 17 16 13 0
-4 9 1 20 11 12 9 23 16 26 14 2 -1 12 4 21 13 8 9 22 14 30 11 9 -4 11 -2 7
6 -5 8 -2 9 9 5 9 -3 16 -3 14 1 -1 4 1 7 4 7 4 0 15 7 25 16 11 9 27 15 37
14 9 -2 14 1 11 7 -3 5 3 12 15 15 12 3 21 10 21 15 0 5 5 6 10 3 6 -3 10 -1
10 4 0 6 4 11 10 11 5 0 32 14 60 30 28 17 48 25 44 18 -4 -7 3 -3 15 10 12
12 27 22 32 22 6 0 23 9 38 19 15 11 34 21 42 23 8 2 17 7 20 11 3 4 15 9 27
10 12 0 19 3 17 6 -3 2 3 10 13 17 13 9 19 9 24 1 5 -8 8 -7 8 4 0 16 56 47
73 41 5 -1 6 1 3 6 -2 4 -1 14 4 22 9 14 -33 61 -65 74 -8 3 -15 10 -15 16 0
5 -9 10 -20 10 -11 0 -20 5 -20 10 0 6 -8 10 -17 10 -24 1 -95 45 -86 53 3 4
-5 7 -18 7 -14 0 -34 7 -45 16 -10 8 -12 12 -4 8 8 -4 12 -3 8 1 -5 5 -19 10
-34 11 -38 4 -114 35 -109 45 3 4 0 11 -6 15 -8 4 -9 3 -5 -4 10 -16 -10 -14
-71 7 -29 10 -49 22 -45 26 4 5 1 5 -6 1 -14 -9 -72 11 -84 28 -5 7 -8 7 -8
-1 0 -7 -9 -13 -20 -13 -11 0 -20 4 -20 10 0 5 -7 7 -15 4 -8 -4 -15 -2 -15 2
0 5 -15 9 -32 10 -18 0 -58 4 -88 8 -30 4 -73 7 -95 7 -22 0 -43 6 -47 12 -6
9 -8 9 -8 0 0 -19 -30 -16 -53 5 -11 9 -17 12 -14 6 4 -7 -2 -12 -16 -13 -12
-1 -33 -2 -47 -4 -20 -2 -24 2 -22 18 2 16 1 17 -7 5 -5 -8 -8 -17 -5 -21 2
-4 -4 -7 -15 -6 -16 1 -19 7 -14 32 2 16 4 38 4 48 0 9 3 17 7 17 4 0 8 25 9
55 1 30 5 60 9 67 4 7 9 28 11 47 2 20 9 39 16 43 9 6 9 8 -1 8 -8 0 -10 5 -5
12 4 7 9 31 10 53 2 22 6 47 9 55 4 8 8 26 10 40 1 14 5 36 7 50 2 14 5 33 6
43 0 10 5 16 10 12 5 -3 13 -1 16 5 4 6 1 9 -7 8 -9 -2 -12 6 -9 27 2 17 6 32
10 35 3 3 7 25 8 49 2 25 9 48 15 53 10 6 10 8 0 8 -7 0 -10 5 -7 10 4 6 11 7
17 4 7 -5 8 -2 2 7 -11 18 -14 39 -6 39 4 0 8 18 9 41 2 60 12 91 26 82 8 -4
7 -1 -2 10 -7 10 -10 24 -6 34 6 16 15 64 17 101 1 6 5 12 9 12 4 0 5 13 3 29
-3 18 1 35 10 44 9 8 12 17 7 19 -10 3 7 117 20 134 4 5 5 21 2 34 -4 14 -2
21 4 17 6 -4 8 3 5 18 -2 14 -1 33 3 42 5 10 7 24 6 31 -1 8 6 21 16 29 10 8
12 12 6 8 -9 -4 -13 3 -13 24 0 36 -9 38 -70 16 -23 -8 -46 -12 -51 -9 -5 3
-9 0 -9 -5 0 -6 -5 -11 -11 -11 -5 0 -7 6 -4 13 4 6 0 4 -9 -7 -9 -11 -22 -16
-31 -12 -10 4 -14 2 -9 -5 4 -7 1 -10 -6 -7 -8 2 -22 -4 -32 -14 -21 -21 -42
-24 -33 -5 4 6 -1 3 -9 -7 -9 -11 -16 -17 -16 -13 0 3 -24 -7 -52 -24 -29 -16
-73 -39 -98 -50 -24 -11 -47 -24 -50 -28 -3 -5 -20 -16 -37 -25 -18 -9 -33
-21 -33 -27 0 -6 -10 -8 -22 -5 -13 3 -17 3 -10 0 6 -3 9 -10 6 -15 -3 -6 -12
-5 -22 3 -13 11 -14 11 -8 0 5 -8 -2 -22 -21 -38 -15 -14 -40 -37 -55 -51 -15
-14 -32 -22 -38 -18 -6 3 -9 1 -8 -6 2 -7 -7 -18 -20 -24 -13 -7 -23 -15 -23
-19 1 -3 -2 -7 -6 -8 -5 -1 -24 -20 -43 -43 -42 -50 -60 -71 -110 -124 -21
-23 -36 -41 -33 -41 4 0 -11 -19 -41 -52 l-19 -21 -43 48 c-24 27 -41 52 -38
57 3 5 0 7 -8 6 -7 -2 -12 5 -12 14 1 10 -4 14 -12 11 -8 -3 -14 0 -14 6 0 6
-20 31 -45 56 -25 25 -43 50 -40 55 3 6 0 10 -8 10 -7 0 -24 11 -37 25 -13 14
-20 25 -16 25 4 0 -12 18 -36 41 -24 22 -42 47 -40 55 2 8 -3 13 -9 12 -7 -2
-18 7 -24 20 -7 13 -16 22 -21 21 -4 -1 -13 7 -19 17 -5 10 -27 35 -47 55 -21
21 -38 41 -38 44 0 4 -11 16 -25 27 -14 11 -23 24 -19 29 3 5 0 8 -8 7 -7 -2
-12 5 -11 15 0 10 -1 16 -4 13 -8 -8 -93 82 -93 99 0 8 -6 14 -12 13 -7 -2
-12 4 -12 13 1 9 -6 16 -15 15 -9 -1 -15 6 -15 16 1 10 -2 16 -6 13 -4 -2 -24
13 -44 35 -20 22 -34 40 -31 40 4 0 -14 19 -39 41 -25 23 -43 45 -41 49 3 4
-2 11 -11 14 -8 3 -12 11 -9 16 4 6 3 9 -2 8 -11 -4 -53 34 -53 48 0 7 -7 14
-15 18 -8 3 -15 12 -15 21 0 8 -5 14 -12 13 -7 -2 -17 7 -23 20 -16 35 -53 29
-70 -11z m978 -1329 c-4 -7 -8 -20 -10 -28 -1 -8 -9 -20 -18 -26 -9 -7 -15
-16 -13 -20 4 -16 -21 -76 -30 -70 -5 3 -8 -5 -8 -17 1 -17 -4 -21 -19 -19
-19 3 -19 3 -2 -10 16 -12 16 -15 2 -36 -9 -12 -21 -19 -27 -16 -7 4 -8 2 -4
-5 4 -6 12 -8 18 -5 13 8 -1 -38 -14 -47 -5 -3 -9 -9 -9 -13 4 -25 0 -46 -8
-42 -5 4 -7 -4 -3 -16 3 -13 1 -19 -5 -15 -7 4 -8 -8 -3 -36 5 -23 6 -45 4
-49 -3 -4 11 -10 31 -14 23 -4 35 -12 36 -23 0 -10 2 -11 6 -3 2 6 11 12 19
12 9 0 12 -5 9 -10 -4 -7 3 -8 20 -4 14 3 25 2 24 -2 -3 -20 2 -28 10 -16 6
10 20 10 72 -5 35 -9 66 -20 69 -23 3 -3 13 -5 23 -6 49 -2 57 -5 57 -21 0
-16 2 -16 11 -3 7 10 12 11 15 4 3 -7 14 -9 26 -6 14 3 19 1 14 -6 -5 -8 -2
-10 8 -6 9 3 24 3 34 -2 9 -4 30 -9 47 -11 16 -3 37 -9 46 -14 10 -5 27 -9 38
-9 12 0 21 -5 21 -12 0 -6 3 -8 7 -5 3 4 13 1 21 -6 9 -7 13 -7 9 -1 -4 7 2
10 18 6 14 -2 25 -8 25 -13 0 -4 9 -6 20 -4 11 2 20 -1 20 -6 0 -5 6 -9 13 -8
6 1 23 1 37 0 19 -1 21 -4 11 -10 -8 -5 -25 -7 -38 -5 -16 3 -22 1 -18 -6 4
-6 3 -9 -2 -8 -4 1 -19 -2 -32 -6 -16 -6 -26 -4 -32 5 -10 17 -1 31 14 23 7
-4 8 -3 4 1 -17 19 -34 12 -33 -13 1 -22 -6 -27 -68 -48 -38 -13 -73 -21 -77
-18 -5 3 -9 0 -9 -7 0 -7 -3 -9 -7 -6 -3 4 -12 2 -18 -3 -7 -6 -24 -11 -39
-12 -14 -1 -26 -6 -26 -11 0 -4 -6 -5 -12 -1 -7 4 -10 4 -6 -1 9 -9 -10 -47
-20 -41 -13 8 -30 -8 -33 -29 -2 -11 5 -35 14 -53 10 -18 15 -38 11 -44 -5 -7
-3 -8 6 -3 10 6 12 4 7 -8 -3 -10 -3 -17 2 -17 10 0 35 -56 30 -67 -2 -4 -8
-7 -14 -5 -5 2 -6 0 -2 -5 5 -4 14 -8 20 -8 7 -1 11 -6 10 -13 -2 -7 1 -12 6
-12 5 0 13 -10 17 -22 4 -13 17 -45 30 -72 28 -58 28 -59 12 -51 -7 4 -6 1 3
-7 18 -15 53 -78 43 -78 -4 0 -1 -7 6 -15 6 -8 8 -20 4 -26 -4 -7 -3 -9 3 -6
6 4 16 -6 22 -23 5 -17 7 -30 3 -30 -4 0 -2 -4 5 -8 13 -8 85 -162 76 -162 -3
0 0 -7 7 -15 9 -11 9 -15 1 -15 -7 0 -9 -5 -6 -10 4 -6 11 -8 16 -5 5 4 9 1 9
-4 0 -20 -17 -12 -77 36 -82 66 -91 74 -124 105 -16 14 -29 23 -29 20 0 -4
-10 4 -21 18 -11 14 -18 19 -14 13 8 -17 0 -16 -18 1 -21 21 -127 76 -147 76
-11 0 -22 -12 -29 -30 -5 -16 -13 -30 -16 -30 -3 0 -3 5 1 12 4 7 3 8 -4 4 -6
-4 -8 -14 -5 -23 4 -11 3 -14 -5 -9 -8 5 -10 2 -6 -8 4 -10 1 -16 -7 -16 -7 0
-9 -3 -6 -7 4 -3 -1 -12 -11 -20 -9 -8 -11 -12 -5 -8 9 4 11 1 7 -9 -3 -9 -10
-16 -15 -16 -5 0 -8 -3 -7 -7 3 -17 -23 -64 -32 -58 -6 3 -7 -1 -4 -9 3 -9 1
-16 -6 -16 -6 0 -8 -5 -5 -10 3 -5 1 -10 -5 -10 -6 0 -8 -4 -5 -10 3 -5 1 -10
-6 -10 -7 0 -10 -3 -6 -6 8 -8 -57 -131 -78 -146 -5 -4 -7 -8 -2 -8 8 0 -41
-102 -53 -110 -4 -3 -10 -15 -14 -28 -4 -12 -12 -19 -18 -16 -6 4 -8 3 -5 -3
7 -10 -40 -113 -56 -124 -5 -3 -8 -10 -8 -15 1 -5 -6 -17 -14 -27 -8 -9 -15
-22 -15 -27 0 -6 -5 -10 -10 -10 -7 0 -7 7 -2 18 4 9 7 36 6 60 -1 23 2 42 7
42 6 0 7 -4 4 -10 -4 -6 1 -7 11 -3 11 4 13 8 6 11 -7 2 -10 8 -7 13 4 5 -1 6
-9 3 -12 -5 -16 1 -16 21 0 18 4 24 13 19 10 -6 10 -4 0 7 -16 17 -17 43 -1
33 7 -5 8 -3 2 7 -5 8 -9 30 -9 49 0 19 -4 40 -8 46 -4 7 -7 23 -6 35 0 13 -2
42 -5 64 -3 22 -9 61 -12 88 -6 41 -9 47 -31 47 -16 0 -22 4 -18 13 4 6 0 3
-9 -7 -13 -17 -18 -17 -33 -5 -11 9 -14 10 -9 2 4 -7 5 -13 2 -13 -2 0 -12 -3
-22 -7 -14 -5 -16 -3 -11 13 7 19 7 19 -8 0 -8 -11 -28 -19 -47 -20 -18 -1
-35 -4 -38 -7 -3 -4 -18 -8 -35 -10 -21 -3 -29 0 -27 9 1 8 -2 11 -8 7 -6 -3
-8 -11 -5 -16 4 -5 0 -9 -7 -10 -7 0 -20 -2 -28 -4 -55 -13 -109 -21 -128 -20
-12 1 -22 -2 -22 -7 0 -4 -3 -7 -7 -6 -5 1 -24 -2 -43 -6 -19 -4 -46 -8 -60
-10 -14 -1 -30 -5 -35 -8 -9 -5 -68 -15 -132 -23 -11 -2 -30 -6 -41 -9 -41
-13 -82 -15 -82 -3 0 7 -5 4 -11 -5 -5 -10 -14 -18 -20 -18 -5 0 0 10 11 23
12 12 23 21 25 20 2 -1 18 12 35 28 18 18 37 29 45 25 8 -3 14 0 12 7 -1 7 4
11 11 9 6 -1 11 3 10 9 -2 6 5 16 15 22 11 7 34 27 53 45 18 19 38 31 44 27 5
-3 10 0 10 7 1 16 35 58 48 58 5 0 13 7 16 16 3 9 11 12 18 8 7 -4 10 -3 5 1
-9 10 21 45 39 45 8 0 11 6 8 15 -7 17 -92 104 -97 98 -2 -2 -12 7 -23 19 -10
12 -13 18 -5 13 10 -5 12 -4 7 4 -4 6 -11 9 -15 7 -8 -5 -66 42 -143 115 -21
20 -38 34 -38 31 0 -3 -16 9 -35 28 -19 18 -31 38 -28 43 3 6 1 7 -5 3 -6 -3
-27 10 -46 29 -20 20 -36 33 -36 30 0 -2 -9 3 -19 12 -11 9 -18 20 -15 25 3 4
-2 8 -10 8 -9 0 -16 4 -16 9 0 5 -9 11 -20 14 -11 3 -24 16 -29 29 -6 12 -10
19 -11 13 0 -6 -3 -6 -8 0 -4 6 -19 18 -34 28 -16 10 -28 24 -28 32 0 8 -5 14
-11 13 -6 -2 -14 4 -16 12 -4 12 -3 12 5 2 5 -8 12 -13 16 -13 20 3 27 0 24
-12 -2 -7 1 -12 7 -12 5 0 9 7 8 15 -1 9 0 10 3 3 3 -7 11 -10 19 -7 7 3 23 0
35 -6 12 -6 40 -13 62 -14 22 -2 44 -10 49 -17 5 -8 9 -10 9 -5 0 5 8 2 17 -5
14 -12 16 -12 8 0 -6 11 -1 13 26 7 53 -9 139 -18 198 -20 l54 -1 -1 63 c-1
58 1 62 16 50 14 -10 13 -8 -1 9 -12 13 -16 29 -13 41 4 11 7 36 8 55 1 23 5
34 12 30 7 -5 7 -2 0 8 -15 18 -15 142 0 151 8 6 7 8 -2 8 -8 0 -10 5 -5 13 4
6 8 39 8 72 0 44 3 59 13 57 8 -1 11 2 7 8 -3 6 -11 8 -16 5 -5 -4 -9 3 -9 15
0 12 4 19 9 15 5 -3 13 -1 16 5 4 6 1 9 -6 8 -7 -2 -14 9 -15 25 -2 19 1 25 9
20 9 -5 8 -3 0 9 -7 8 -11 17 -8 19 2 3 5 26 6 52 2 26 7 47 12 47 5 0 6 -7 3
-16 -6 -15 -4 -15 10 -3 15 12 14 14 -5 23 -25 11 -28 31 -3 22 16 -6 16 -5 0
7 -10 8 -15 17 -11 20 10 10 25 8 18 -2 -3 -5 -1 -12 5 -16 6 -4 8 -10 5 -15
-3 -4 2 -11 10 -14 13 -5 14 -10 4 -28 -12 -22 -11 -22 6 -8 16 13 18 13 13 0
-2 -8 3 -23 13 -33 10 -11 16 -27 14 -37 -3 -13 1 -17 11 -13 7 3 16 -2 19
-11 3 -9 8 -24 11 -33 3 -10 5 -20 5 -23 0 -3 9 -8 20 -12 10 -4 19 -17 19
-28 0 -11 4 -20 9 -20 5 0 21 -20 35 -45 37 -62 54 -69 94 -39 17 14 37 22 42
19 6 -4 9 -1 8 6 -2 6 3 14 11 17 9 3 11 0 6 -8 -5 -9 -4 -11 3 -6 7 4 12 13
12 20 0 13 39 45 57 48 5 0 14 9 22 20 7 11 19 17 27 14 8 -3 13 0 11 7 -1 7
6 11 15 11 10 -1 15 2 13 7 -3 4 3 13 14 19 11 6 31 20 44 33 53 48 115 87
120 75 3 -8 6 -6 6 4 1 10 12 25 26 34 21 14 28 14 43 3 15 -13 16 -12 3 4 -8
9 -12 19 -10 21 60 46 75 54 91 45 13 -7 15 -5 11 10 -3 13 3 23 18 31 12 7
32 21 43 31 23 22 31 24 19 7z"/>
<path d="M2895 3589 c-16 -10 -25 -19 -19 -19 7 0 22 9 35 20 30 24 23 24 -16
-1z"/>
<path d="M2876 3533 c-6 -14 -5 -15 5 -6 7 7 10 15 7 18 -3 3 -9 -2 -12 -12z"/>
<path d="M2835 3530 c-4 -6 -11 -7 -17 -4 -7 4 -8 2 -4 -5 6 -9 11 -9 22 0 14
11 18 19 10 19 -3 0 -8 -5 -11 -10z"/>
<path d="M2793 3505 c0 -8 4 -12 9 -9 5 3 6 10 3 15 -9 13 -12 11 -12 -6z"/>
<path d="M2000 3420 c-9 -6 -10 -10 -3 -10 6 0 15 5 18 10 8 12 4 12 -15 0z"/>
<path d="M2639 3393 c-13 -16 -12 -17 4 -4 16 13 21 21 13 21 -2 0 -10 -8 -17
-17z"/>
<path d="M2153 3215 c0 -8 4 -12 9 -9 5 3 6 10 3 15 -9 13 -12 11 -12 -6z"/>
<path d="M1479 2733 c-13 -17 -13 -17 6 -3 11 8 22 16 24 17 2 2 0 3 -6 3 -6
0 -17 -8 -24 -17z"/>
<path d="M1955 2740 c3 -5 8 -10 11 -10 2 0 4 5 4 10 0 6 -5 10 -11 10 -5 0
-7 -4 -4 -10z"/>
<path d="M1533 2715 c0 -8 4 -12 9 -9 5 3 6 10 3 15 -9 13 -12 11 -12 -6z"/>
<path d="M3230 2486 c0 -2 7 -7 16 -10 8 -3 12 -2 9 4 -6 10 -25 14 -25 6z"/>
<path d="M3313 2315 c0 -8 4 -12 9 -9 5 3 6 10 3 15 -9 13 -12 11 -12 -6z"/>
<path d="M3415 2100 c-3 -5 -1 -10 4 -10 6 0 11 5 11 10 0 6 -2 10 -4 10 -3 0
-8 -4 -11 -10z"/>
<path d="M3430 2060 c0 -5 5 -10 11 -10 5 0 7 5 4 10 -3 6 -8 10 -11 10 -2 0
-4 -4 -4 -10z"/>
<path d="M3393 2047 c0 -8 6 -14 14 -14 9 0 10 4 2 14 -6 7 -12 13 -14 13 -1
0 -2 -6 -2 -13z"/>
<path d="M3450 2031 c0 -6 4 -13 10 -16 6 -3 7 1 4 9 -7 18 -14 21 -14 7z"/>
<path d="M3444 1995 c8 -8 18 -15 22 -15 3 0 1 7 -6 15 -7 8 -17 15 -22 15 -5
0 -3 -7 6 -15z"/>
<path d="M1795 1861 c-3 -5 -2 -12 3 -15 5 -3 9 1 9 9 0 17 -3 19 -12 6z"/>
<path d="M1875 1860 c-3 -5 -1 -10 4 -10 6 0 11 5 11 10 0 6 -2 10 -4 10 -3 0
-8 -4 -11 -10z"/>
<path d="M2836 1853 c-6 -14 -5 -15 5 -6 7 7 10 15 7 18 -3 3 -9 -2 -12 -12z"/>
<path d="M1750 1840 c8 -5 20 -10 25 -10 6 0 3 5 -5 10 -8 5 -19 10 -25 10 -5
0 -3 -5 5 -10z"/>
<path d="M2773 1745 c0 -8 4 -12 9 -9 5 3 6 10 3 15 -9 13 -12 11 -12 -6z"/>
<path d="M2710 1676 c0 -2 8 -10 18 -17 15 -13 16 -12 3 4 -13 16 -21 21 -21
13z"/>
<path d="M2690 1620 c0 -5 5 -10 11 -10 5 0 7 5 4 10 -3 6 -8 10 -11 10 -2 0
-4 -4 -4 -10z"/>
<path d="M2636 1485 c-3 -8 -1 -15 4 -15 6 0 10 7 10 15 0 8 -2 15 -4 15 -2 0
-6 -7 -10 -15z"/>
<path d="M2196 4807 c3 -10 9 -15 12 -12 3 3 0 11 -7 18 -10 9 -11 8 -5 -6z"/>
<path d="M3310 4146 c0 -2 7 -7 16 -10 8 -3 12 -2 9 4 -6 10 -25 14 -25 6z"/>
<path d="M3133 3929 c-2 -23 3 -25 10 -4 4 8 3 16 -1 19 -4 3 -9 -4 -9 -15z"/>
<path d="M1874 3836 c1 -8 5 -18 8 -22 4 -3 5 1 4 10 -1 8 -5 18 -8 22 -4 3
-5 -1 -4 -10z"/>
<path d="M910 3720 c0 -5 5 -10 11 -10 5 0 7 5 4 10 -3 6 -8 10 -11 10 -2 0
-4 -4 -4 -10z"/>
<path d="M940 3726 c0 -2 8 -10 18 -17 15 -13 16 -12 3 4 -13 16 -21 21 -21
13z"/>
<path d="M810 3700 c0 -5 5 -10 11 -10 5 0 7 5 4 10 -3 6 -8 10 -11 10 -2 0
-4 -4 -4 -10z"/>
<path d="M550 3297 c0 -2 6 -10 14 -16 11 -9 16 -9 22 1 4 7 4 10 -1 6 -4 -4
-14 -3 -22 3 -7 6 -13 9 -13 6z"/>
<path d="M635 3211 c-3 -5 -2 -12 3 -15 5 -3 9 1 9 9 0 17 -3 19 -12 6z"/>
<path d="M749 3083 c-13 -16 -12 -17 4 -4 9 7 17 15 17 17 0 8 -8 3 -21 -13z"/>
<path d="M790 3080 c0 -5 5 -10 11 -10 5 0 7 5 4 10 -3 6 -8 10 -11 10 -2 0
-4 -4 -4 -10z"/>
<path d="M1047 2919 c7 -7 15 -10 18 -7 3 3 -2 9 -12 12 -14 6 -15 5 -6 -5z"/>
<path d="M1150 2859 c0 -5 5 -7 10 -4 6 3 10 8 10 11 0 2 -4 4 -10 4 -5 0 -10
-5 -10 -11z"/>
<path d="M1206 2822 c-3 -5 1 -9 9 -9 8 0 12 4 9 9 -3 4 -7 8 -9 8 -2 0 -6 -4
-9 -8z"/>
<path d="M4750 2806 c0 -2 7 -7 16 -10 8 -3 12 -2 9 4 -6 10 -25 14 -25 6z"/>
<path d="M4095 2060 c3 -5 8 -10 11 -10 2 0 4 5 4 10 0 6 -5 10 -11 10 -5 0
-7 -4 -4 -10z"/>
<path d="M4025 2000 c-3 -6 1 -7 9 -4 18 7 21 14 7 14 -6 0 -13 -4 -16 -10z"/>
<path d="M3893 1935 c0 -8 4 -12 9 -9 5 3 6 10 3 15 -9 13 -12 11 -12 -6z"/>
<path d="M3655 1799 c-3 -4 2 -6 10 -5 21 3 28 13 10 13 -9 0 -18 -4 -20 -8z"/>
<path d="M433 1705 c0 -8 4 -12 9 -9 5 3 6 10 3 15 -9 13 -12 11 -12 -6z"/>
<path d="M1533 1689 c-2 -23 3 -25 10 -4 4 8 3 16 -1 19 -4 3 -9 -4 -9 -15z"/>
<path d="M1156 1542 c-3 -5 1 -9 9 -9 8 0 12 4 9 9 -3 4 -7 8 -9 8 -2 0 -6 -4
-9 -8z"/>
<path d="M999 1513 c-13 -16 -12 -17 4 -4 9 7 17 15 17 17 0 8 -8 3 -21 -13z"/>
<path d="M836 1487 c3 -10 9 -15 12 -12 3 3 0 11 -7 18 -10 9 -11 8 -5 -6z"/>
<path d="M3995 1240 c-3 -5 -1 -10 4 -10 6 0 11 5 11 10 0 6 -2 10 -4 10 -3 0
-8 -4 -11 -10z"/>
<path d="M2576 1115 c-9 -26 -7 -32 5 -12 6 10 9 21 6 23 -2 3 -7 -2 -11 -11z"/>
<path d="M3026 1078 c3 -5 10 -6 15 -3 13 9 11 12 -6 12 -8 0 -12 -4 -9 -9z"/>
<path d="M1726 958 c3 -5 10 -6 15 -3 13 9 11 12 -6 12 -8 0 -12 -4 -9 -9z"/>
<path d="M2549 923 c-13 -16 -12 -17 4 -4 16 13 21 21 13 21 -2 0 -10 -8 -17
-17z"/>
<path d="M4073 905 c0 -8 4 -12 9 -9 5 3 6 10 3 15 -9 13 -12 11 -12 -6z"/>
<path d="M3545 860 c-3 -6 1 -7 9 -4 18 7 21 14 7 14 -6 0 -13 -4 -16 -10z"/>
<path d="M2339 588 c-5 -18 -6 -38 -1 -34 7 8 12 36 6 36 -2 0 -4 -1 -5 -2z"/>
<path d="M1919 388 c-5 -18 -6 -38 -1 -34 7 8 12 36 6 36 -2 0 -4 -1 -5 -2z"/>
<path d="M2159 313 c-13 -16 -12 -17 4 -4 9 7 17 15 17 17 0 8 -8 3 -21 -13z"/>
</g>
</svg>
