<svg xmlns="http://www.w3.org/2000/svg" width="512" height="512" viewBox="0 0 512 512" preserveAspectRatio="xMidYMid meet"><g transform="translate(0,512) scale(0.1,-0.1)" fill="#000000" stroke="none"><path d="M3594 4583 c-42 -8 -85 -61 -162 -198 -98 -174 -118 -210 -177 -313 -50 -89 -57 -117 -43 -172 18 -66 78 -110 148 -110 80 0 108 26 206 195 231 401 229 396 228 452 -3 103 -91 168 -200 146z"/><path d="M1499 4396 c-2 -2 -29 -6 -59 -9 -286 -31 -596 -218 -757 -457 -138 -206 -195 -392 -196 -645 -2 -298 78 -520 267 -745 26 -30 441 -450 924 -933 l877 -878 3 276 2 275 23 1 c235 12 387 52 575 149 249 131 422 307 547 559 190 381 172 866 -45 1230 -225 378 -635 612 -1086 621 -15 0 -23 8 -27 28 -14 67 -165 237 -292 328 -179 127 -411 200 -647 202 -58 1 -107 0 -109 -2z"/><path d="M4380 3786 c-19 -7 -125 -66 -235 -131 -110 -65 -226 -133 -258 -152 -69 -41 -89 -68 -95 -133 -9 -97 76 -181 170 -166 59 10 562 300 596 345 22 27 27 45 27 90 0 68 -27 111 -85 141 -45 23 -71 24 -120 6z"/><path d="M4123 2709 c-76 -15 -130 -95 -118 -174 8 -57 55 -109 112 -124 27 -8 147 -11 335 -11 265 1 297 3 335 20 48 21 78 64 88 122 9 52 -27 125 -75 153 -33 19 -52 20 -342 20 -169 0 -320 -3 -335 -6z"/><path d="M3897 1905 c-70 -24 -107 -75 -107 -147 0 -55 26 -98 82 -135 24 -16 148 -90 277 -164 212 -121 239 -134 281 -133 63 1 110 29 138 84 28 55 24 117 -12 164 -19 25 -123 90 -291 182 -11 6 -77 43 -147 83 -138 78 -164 86 -221 66z"/><path d="M3285 1314 c-50 -25 -80 -79 -79 -138 1 -55 2 -57 124 -266 37 -63 78 -135 92 -160 100 -180 125 -206 200 -216 96 -12 189 81 173 175 -8 51 -311 567 -348 595 -35 26 -122 31 -162 10z"/></g></svg>