<svg id="visual" viewBox="0 0 1200 675" width="1200" height="675" xmlns="http://www.w3.org/2000/svg" xmlns:xlink="http://www.w3.org/1999/xlink" version="1.1"><path d="M0 82L18.2 79.8C36.3 77.7 72.7 73.3 109 88C145.3 102.7 181.7 136.3 218 154.3C254.3 172.3 290.7 174.7 327 174.7C363.3 174.7 399.7 172.3 436 165.5C472.3 158.7 508.7 147.3 545.2 147.3C581.7 147.3 618.3 158.7 654.8 159.8C691.3 161 727.7 152 764 145.2C800.3 138.3 836.7 133.7 873 122.3C909.3 111 945.7 93 982 83C1018.3 73 1054.7 71 1091 83.5C1127.3 96 1163.7 123 1181.8 136.5L1200 150L1200 0L1181.8 0C1163.7 0 1127.3 0 1091 0C1054.7 0 1018.3 0 982 0C945.7 0 909.3 0 873 0C836.7 0 800.3 0 764 0C727.7 0 691.3 0 654.8 0C618.3 0 581.7 0 545.2 0C508.7 0 472.3 0 436 0C399.7 0 363.3 0 327 0C290.7 0 254.3 0 218 0C181.7 0 145.3 0 109 0C72.7 0 36.3 0 18.2 0L0 0Z" fill="#bd9315"></path><path d="M0 190L18.2 178.8C36.3 167.7 72.7 145.3 109 152.2C145.3 159 181.7 195 218 216.3C254.3 237.7 290.7 244.3 327 251C363.3 257.7 399.7 264.3 436 257.5C472.3 250.7 508.7 230.3 545.2 227C581.7 223.7 618.3 237.3 654.8 238.5C691.3 239.7 727.7 228.3 764 218.2C800.3 208 836.7 199 873 182.2C909.3 165.3 945.7 140.7 982 134C1018.3 127.3 1054.7 138.7 1091 160C1127.3 181.3 1163.7 212.7 1181.8 228.3L1200 244L1200 148L1181.8 134.5C1163.7 121 1127.3 94 1091 81.5C1054.7 69 1018.3 71 982 81C945.7 91 909.3 109 873 120.3C836.7 131.7 800.3 136.3 764 143.2C727.7 150 691.3 159 654.8 157.8C618.3 156.7 581.7 145.3 545.2 145.3C508.7 145.3 472.3 156.7 436 163.5C399.7 170.3 363.3 172.7 327 172.7C290.7 172.7 254.3 170.3 218 152.3C181.7 134.3 145.3 100.7 109 86C72.7 71.3 36.3 75.7 18.2 77.8L0 80Z" fill="#ddac1b"></path><path d="M0 352L18.2 353.2C36.3 354.3 72.7 356.7 109 371.3C145.3 386 181.7 413 218 441.2C254.3 469.3 290.7 498.7 327 507.7C363.3 516.7 399.7 505.3 436 482.8C472.3 460.3 508.7 426.7 545.2 427.8C581.7 429 618.3 465 654.8 479.5C691.3 494 727.7 487 764 476.8C800.3 466.7 836.7 453.3 873 432C909.3 410.7 945.7 381.3 982 362.2C1018.3 343 1054.7 334 1091 358.8C1127.3 383.7 1163.7 442.3 1181.8 471.7L1200 501L1200 242L1181.8 226.3C1163.7 210.7 1127.3 179.3 1091 158C1054.7 136.7 1018.3 125.3 982 132C945.7 138.7 909.3 163.3 873 180.2C836.7 197 800.3 206 764 216.2C727.7 226.3 691.3 237.7 654.8 236.5C618.3 235.3 581.7 221.7 545.2 225C508.7 228.3 472.3 248.7 436 255.5C399.7 262.3 363.3 255.7 327 249C290.7 242.3 254.3 235.7 218 214.3C181.7 193 145.3 157 109 150.2C72.7 143.3 36.3 165.7 18.2 176.8L0 188Z" fill="#ffc622"></path><path d="M0 473L18.2 477.7C36.3 482.3 72.7 491.7 109 503C145.3 514.3 181.7 527.7 218 541.2C254.3 554.7 290.7 568.3 327 576.2C363.3 584 399.7 586 436 575.8C472.3 565.7 508.7 543.3 545.2 542.3C581.7 541.3 618.3 561.7 654.8 567.3C691.3 573 727.7 564 764 559.5C800.3 555 836.7 555 873 532.5C909.3 510 945.7 465 982 438C1018.3 411 1054.7 402 1091 429C1127.3 456 1163.7 519 1181.8 550.5L1200 582L1200 499L1181.8 469.7C1163.7 440.3 1127.3 381.7 1091 356.8C1054.7 332 1018.3 341 982 360.2C945.7 379.3 909.3 408.7 873 430C836.7 451.3 800.3 464.7 764 474.8C727.7 485 691.3 492 654.8 477.5C618.3 463 581.7 427 545.2 425.8C508.7 424.7 472.3 458.3 436 480.8C399.7 503.3 363.3 514.7 327 505.7C290.7 496.7 254.3 467.3 218 439.2C181.7 411 145.3 384 109 369.3C72.7 354.7 36.3 352.3 18.2 351.2L0 350Z" fill="#ffd04f"></path><path d="M0 676L18.2 676C36.3 676 72.7 676 109 676C145.3 676 181.7 676 218 676C254.3 676 290.7 676 327 676C363.3 676 399.7 676 436 676C472.3 676 508.7 676 545.2 676C581.7 676 618.3 676 654.8 676C691.3 676 727.7 676 764 676C800.3 676 836.7 676 873 676C909.3 676 945.7 676 982 676C1018.3 676 1054.7 676 1091 676C1127.3 676 1163.7 676 1181.8 676L1200 676L1200 580L1181.8 548.5C1163.7 517 1127.3 454 1091 427C1054.7 400 1018.3 409 982 436C945.7 463 909.3 508 873 530.5C836.7 553 800.3 553 764 557.5C727.7 562 691.3 571 654.8 565.3C618.3 559.7 581.7 539.3 545.2 540.3C508.7 541.3 472.3 563.7 436 573.8C399.7 584 363.3 582 327 574.2C290.7 566.3 254.3 552.7 218 539.2C181.7 525.7 145.3 512.3 109 501C72.7 489.7 36.3 480.3 18.2 475.7L0 471Z" fill="#ffd971"></path></svg>