<svg id="visual" viewBox="0 0 1200 675" width="1200" height="675" xmlns="http://www.w3.org/2000/svg" xmlns:xlink="http://www.w3.org/1999/xlink" version="1.1"><path d="M0 102L18.2 101C36.3 100 72.7 98 109 102.5C145.3 107 181.7 118 218 113.5C254.3 109 290.7 89 327 79C363.3 69 399.7 69 436 81.3C472.3 93.7 508.7 118.3 545.2 130.7C581.7 143 618.3 143 654.8 128.3C691.3 113.7 727.7 84.3 764 76.5C800.3 68.7 836.7 82.3 873 91.3C909.3 100.3 945.7 104.7 982 96.7C1018.3 88.7 1054.7 68.3 1091 72.8C1127.3 77.3 1163.7 106.7 1181.8 121.3L1200 136L1200 0L1181.8 0C1163.7 0 1127.3 0 1091 0C1054.7 0 1018.3 0 982 0C945.7 0 909.3 0 873 0C836.7 0 800.3 0 764 0C727.7 0 691.3 0 654.8 0C618.3 0 581.7 0 545.2 0C508.7 0 472.3 0 436 0C399.7 0 363.3 0 327 0C290.7 0 254.3 0 218 0C181.7 0 145.3 0 109 0C72.7 0 36.3 0 18.2 0L0 0Z" fill="#1396be"></path><path d="M0 210L18.2 213.5C36.3 217 72.7 224 109 244.3C145.3 264.7 181.7 298.3 218 290.3C254.3 282.3 290.7 232.7 327 223.7C363.3 214.7 399.7 246.3 436 277.8C472.3 309.3 508.7 340.7 545.2 336.2C581.7 331.7 618.3 291.3 654.8 261C691.3 230.7 727.7 210.3 764 223.8C800.3 237.3 836.7 284.7 873 312.8C909.3 341 945.7 350 982 321.8C1018.3 293.7 1054.7 228.3 1091 212.5C1127.3 196.7 1163.7 230.3 1181.8 247.2L1200 264L1200 134L1181.8 119.3C1163.7 104.7 1127.3 75.3 1091 70.8C1054.7 66.3 1018.3 86.7 982 94.7C945.7 102.7 909.3 98.3 873 89.3C836.7 80.3 800.3 66.7 764 74.5C727.7 82.3 691.3 111.7 654.8 126.3C618.3 141 581.7 141 545.2 128.7C508.7 116.3 472.3 91.7 436 79.3C399.7 67 363.3 67 327 77C290.7 87 254.3 107 218 111.5C181.7 116 145.3 105 109 100.5C72.7 96 36.3 98 18.2 99L0 100Z" fill="#1ab0de"></path><path d="M0 251L18.2 264.5C36.3 278 72.7 305 109 337.7C145.3 370.3 181.7 408.7 218 396.3C254.3 384 290.7 321 327 306.3C363.3 291.7 399.7 325.3 436 353.3C472.3 381.3 508.7 403.7 545.2 393.5C581.7 383.3 618.3 340.7 654.8 309.2C691.3 277.7 727.7 257.3 764 275.3C800.3 293.3 836.7 349.7 873 386.8C909.3 424 945.7 442 982 417.3C1018.3 392.7 1054.7 325.3 1091 301.7C1127.3 278 1163.7 298 1181.8 308L1200 318L1200 262L1181.8 245.2C1163.7 228.3 1127.3 194.7 1091 210.5C1054.7 226.3 1018.3 291.7 982 319.8C945.7 348 909.3 339 873 310.8C836.7 282.7 800.3 235.3 764 221.8C727.7 208.3 691.3 228.7 654.8 259C618.3 289.3 581.7 329.7 545.2 334.2C508.7 338.7 472.3 307.3 436 275.8C399.7 244.3 363.3 212.7 327 221.7C290.7 230.7 254.3 280.3 218 288.3C181.7 296.3 145.3 262.7 109 242.3C72.7 222 36.3 215 18.2 211.5L0 208Z" fill="#22caff"></path><path d="M0 501L18.2 516.7C36.3 532.3 72.7 563.7 109 574.8C145.3 586 181.7 577 218 573.7C254.3 570.3 290.7 572.7 327 576C363.3 579.3 399.7 583.7 436 589.3C472.3 595 508.7 602 545.2 594.2C581.7 586.3 618.3 563.7 654.8 554.7C691.3 545.7 727.7 550.3 764 556C800.3 561.7 836.7 568.3 873 579.5C909.3 590.7 945.7 606.3 982 604C1018.3 601.7 1054.7 581.3 1091 574.7C1127.3 568 1163.7 575 1181.8 578.5L1200 582L1200 316L1181.8 306C1163.7 296 1127.3 276 1091 299.7C1054.7 323.3 1018.3 390.7 982 415.3C945.7 440 909.3 422 873 384.8C836.7 347.7 800.3 291.3 764 273.3C727.7 255.3 691.3 275.7 654.8 307.2C618.3 338.7 581.7 381.3 545.2 391.5C508.7 401.7 472.3 379.3 436 351.3C399.7 323.3 363.3 289.7 327 304.3C290.7 319 254.3 382 218 394.3C181.7 406.7 145.3 368.3 109 335.7C72.7 303 36.3 276 18.2 262.5L0 249Z" fill="#5ed3fe"></path><path d="M0 676L18.2 676C36.3 676 72.7 676 109 676C145.3 676 181.7 676 218 676C254.3 676 290.7 676 327 676C363.3 676 399.7 676 436 676C472.3 676 508.7 676 545.2 676C581.7 676 618.3 676 654.8 676C691.3 676 727.7 676 764 676C800.3 676 836.7 676 873 676C909.3 676 945.7 676 982 676C1018.3 676 1054.7 676 1091 676C1127.3 676 1163.7 676 1181.8 676L1200 676L1200 580L1181.8 576.5C1163.7 573 1127.3 566 1091 572.7C1054.7 579.3 1018.3 599.7 982 602C945.7 604.3 909.3 588.7 873 577.5C836.7 566.3 800.3 559.7 764 554C727.7 548.3 691.3 543.7 654.8 552.7C618.3 561.7 581.7 584.3 545.2 592.2C508.7 600 472.3 593 436 587.3C399.7 581.7 363.3 577.3 327 574C290.7 570.7 254.3 568.3 218 571.7C181.7 575 145.3 584 109 572.8C72.7 561.7 36.3 530.3 18.2 514.7L0 499Z" fill="#82dbfd"></path></svg>